<?xml version="1.0" encoding="utf-8"?>
<svg viewBox="0 0 500 500" xmlns="http://www.w3.org/2000/svg">
  <path opacity="1.000000" stroke="none" d="M 3.727 189.094 C 3.727 128.269 3.727 67.799 3.727 7.329 C 165.155 7.329 326.585 7.329 488.014 7.329 C 488.014 167.71 488.014 328.09 488.014 488.474 C 326.585 488.474 165.155 488.474 3.727 488.474 C 3.727 388.8 3.727 289.125 3.727 189.094 M 393.98 93.193 C 393.761 93.069 393.539 92.947 393.31 92.866 C 393.31 92.866 393.354 92.858 393.267 92.473 C 393.044 92.351 392.825 92.231 392.593 92.15 C 392.593 92.15 392.637 92.143 392.549 91.759 C 392.328 91.639 392.106 91.519 391.875 91.44 C 391.875 91.44 391.919 91.43 391.831 91.047 C 391.609 90.928 391.389 90.805 391.157 90.726 C 391.157 90.726 391.202 90.718 391.115 90.335 C 390.893 90.213 390.673 90.092 390.441 90.013 C 390.441 90.013 390.483 90.001 390.407 89.616 C 390.185 89.497 389.962 89.378 389.724 89.3 C 389.724 89.3 389.766 89.285 389.679 88.904 C 389.455 88.783 389.236 88.665 389.006 88.587 C 389.006 88.587 389.046 88.571 388.858 88.169 C 388.428 88.079 388.001 87.987 387.408 87.433 C 381.923 83.372 376.517 79.199 370.93 75.278 C 361.518 68.675 351.681 62.792 340.847 58.131 C 333.634 52.479 324.86 50.051 316.399 47.472 C 304.2 43.753 291.659 41.064 279.166 38.388 C 272.119 36.878 264.877 36.272 257.12 35.124 C 256.48 34.861 255.848 34.392 255.203 34.371 C 249.425 34.171 243.647 34.052 237.176 33.802 C 233.78 33.802 230.386 33.802 226.992 33.802 C 226.989 34.009 226.987 34.218 226.982 34.425 C 230.012 34.425 233.045 34.425 236.074 34.425 C 233.484 35.06 230.872 35.279 228.325 34.967 C 227.075 34.814 225.946 33.681 224.429 32.459 C 214.729 32.441 205.029 32.425 194.66 32.292 C 169.836 32.284 145.011 32.268 120.187 32.274 C 98.111 32.281 76.034 32.315 53.357 32.378 C 53.072 33.786 52.537 35.194 52.537 36.605 C 52.506 120.352 52.515 204.1 52.537 287.849 C 52.54 308.635 52.596 329.422 52.557 350.872 C 52.54 363.105 52.509 375.336 52.54 387.569 C 52.546 388.643 52.983 389.718 53.767 390.827 C 54.844 390.033 55.92 389.24 57.476 388.466 C 60.596 385.925 63.713 383.382 67.287 380.709 C 68.579 379.61 69.872 378.511 71.677 377.314 C 74.873 374.69 78.069 372.063 81.209 369.423 C 81.209 369.423 81.195 369.483 81.463 369.314 C 81.67 369.191 81.757 369.01 82.198 368.584 C 109.369 347.019 136.543 325.452 164.25 303.564 C 164.448 298.535 164.809 293.502 164.754 288.476 C 164.737 286.883 163.619 285.298 162.78 283.243 C 162.231 281.209 161.623 279.188 161.144 277.139 C 157.821 262.929 154.868 248.775 156.492 233.926 C 157.798 222.001 160.104 210.452 164.503 199.306 C 165.399 197.039 166.379 194.805 167.731 192.326 C 169.171 190.513 170.688 188.757 172.034 186.881 C 175.066 182.655 178.011 178.37 180.946 174.103 C 180.946 174.103 180.935 174.15 181.44 174.11 C 185.754 169.891 190.068 165.668 194.718 161.043 C 198.75 158.373 202.69 155.549 206.847 153.083 C 210.327 151.018 214.056 149.373 217.933 147.468 C 218.061 147.342 218.166 147.198 218.59 147.06 C 218.59 147.06 218.938 147.04 219.103 147.269 C 219.315 147.193 219.525 147.117 219.684 147.044 C 219.684 147.044 219.685 147.094 220.242 147.054 C 224.584 145.629 228.852 143.911 233.281 142.841 C 246.26 139.701 259.445 139.363 272.693 140.679 C 275.136 140.921 277.582 141.287 279.979 141.816 C 284.295 142.769 288.574 143.891 292.866 144.894 C 292.866 144.894 292.821 144.899 292.978 145.109 C 293.16 145.041 293.343 144.973 294.009 145.092 C 298.809 147.525 303.718 149.771 308.381 152.44 C 314.034 155.677 319.481 159.269 325.216 163.056 C 325.435 163.194 325.656 163.333 325.867 163.428 C 325.867 163.428 325.824 163.44 325.85 163.948 C 326.81 164.741 327.77 165.533 328.738 166.285 C 328.738 166.285 328.695 166.295 328.711 166.801 C 331.829 169.735 334.948 172.669 338.079 175.543 C 338.079 175.543 338.023 175.528 338.108 175.991 C 338.334 176.356 338.561 176.725 339.066 177.486 C 365.88 212.896 368.743 250.507 349.121 290.379 C 348.556 291.301 347.991 292.222 347.351 293.373 C 347.351 293.373 347.385 293.61 347.022 293.881 C 346.674 294.354 346.324 294.826 345.807 295.589 C 345.614 295.859 345.421 296.13 344.856 296.745 C 344.731 297.22 344.607 297.696 344.53 298.152 C 344.53 298.152 344.509 298.107 344.029 298.293 C 342.912 299.909 341.793 301.528 340.452 303.191 C 340.306 303.273 340.226 303.394 339.875 303.831 C 339.751 304.08 339.627 304.328 339.46 304.864 C 339.46 304.864 339.506 305.151 339.224 305.403 C 339.079 305.601 338.936 305.805 338.341 306.19 C 335.017 309.68 331.864 313.358 328.326 316.623 C 323.018 321.521 317.379 326.019 310.637 328.964 C 309.322 329.538 308.322 330.825 306.621 331.789 C 304.634 332.384 302.615 332.894 300.665 333.595 C 295.34 335.513 290.169 338.013 284.705 339.375 C 272.532 342.413 260.165 343.048 247.598 341.734 C 235.428 340.462 223.856 337.658 213.035 331.918 C 212.064 331.4 210.823 331.378 209.478 330.666 C 204.977 328.144 200.476 325.623 195.933 322.586 C 195.557 322.04 195.274 321.39 194.792 320.96 C 190.639 317.244 185.687 316.781 179.837 317.473 C 175.746 318.9 171.093 319.528 167.671 321.906 C 157.604 328.897 147.956 336.501 138.271 344.024 C 130.851 349.786 123.62 355.79 115.798 361.631 C 112.866 363.99 109.931 366.348 107.038 368.727 C 107.038 368.727 107.047 368.682 106.697 368.832 C 106.556 369.036 106.416 369.242 106.335 369.443 C 106.335 369.443 106.332 369.385 105.999 369.619 C 105.652 370.031 105.305 370.44 104.506 371.04 C 103.298 371.942 102.01 372.762 100.893 373.764 C 98.81 375.639 96.823 377.623 94.241 379.54 C 93.472 379.966 92.704 380.394 91.97 380.843 C 91.97 380.843 91.968 380.802 91.595 380.905 C 91.468 381.119 91.343 381.334 91.26 381.559 C 91.26 381.559 91.261 381.517 90.86 381.649 C 90.671 381.856 90.484 382.064 90.063 382.219 C 90.063 382.219 89.831 382.27 89.385 382.366 C 88.971 382.808 88.554 383.249 87.907 383.639 C 87.907 383.639 87.674 383.692 87.286 383.746 C 87.163 383.959 87.039 384.173 86.954 384.401 C 86.954 384.401 86.934 384.364 86.434 384.384 C 86.116 384.861 85.798 385.337 85.517 385.829 C 85.517 385.829 85.501 385.791 84.987 385.823 C 83.715 387.009 82.442 388.194 81.211 389.397 C 81.211 389.397 81.217 389.355 80.833 389.482 C 80.671 389.693 80.509 389.906 79.885 390.304 C 79.08 390.7 78.176 390.967 77.486 391.509 C 70.1 397.322 62.764 403.198 55.372 409.002 C 53.781 410.251 51.786 411.15 52.585 414.384 C 52.562 430.744 52.522 447.106 52.54 463.467 C 52.54 464.452 52.979 465.438 53.258 466.419 C 53.258 466.419 53.263 466.376 53.536 466.881 C 54.732 467.188 55.931 467.762 57.128 467.763 C 106.867 467.807 156.608 467.805 206.35 467.772 C 207.459 467.772 208.569 467.371 210.343 467.08 C 211.878 467.08 213.416 467.159 214.945 467.066 C 218.178 466.866 221.408 466.574 225.306 466.356 C 228.966 466.098 232.625 465.843 236.793 465.884 C 241.623 465.602 246.453 465.321 251.932 464.91 C 260.652 463.976 269.505 463.687 278.061 461.96 C 290.339 459.478 302.445 456.108 314.528 452.772 C 318.46 451.685 322.087 449.513 326.443 447.865 C 327.269 447.858 328.235 448.132 328.9 447.801 C 333.088 445.738 337.229 443.574 341.35 441.379 C 348.893 437.362 356.413 433.301 364.297 429.201 C 364.418 429.002 364.534 428.8 364.607 428.594 C 364.607 428.594 364.611 428.639 364.982 428.526 C 365.111 428.312 365.244 428.098 365.327 427.884 C 365.327 427.884 365.33 427.931 365.855 427.888 C 367.844 426.465 369.834 425.043 371.787 423.606 C 371.787 423.606 371.788 423.648 372.161 423.541 C 372.291 423.327 372.417 423.112 372.5 422.891 C 372.5 422.891 372.504 422.935 372.869 422.816 C 373.002 422.605 373.134 422.393 373.217 422.176 C 373.217 422.176 373.213 422.223 373.595 422.081 C 373.767 421.874 373.938 421.665 374.393 421.498 C 374.393 421.498 374.676 421.445 375.051 421.396 C 375.172 421.185 375.292 420.973 375.372 420.754 C 375.372 420.754 375.374 420.795 375.744 420.681 C 375.875 420.466 376.007 420.254 376.088 420.042 C 376.088 420.042 376.089 420.092 376.624 420.017 C 377.657 419.318 378.688 418.618 379.68 417.905 C 379.68 417.905 379.677 417.946 380.05 417.833 C 380.178 417.62 380.308 417.408 380.392 417.189 C 380.392 417.189 380.398 417.234 380.767 417.122 C 380.895 416.909 381.025 416.695 381.11 416.482 C 381.11 416.482 381.121 416.524 381.617 416.475 C 381.943 416.004 382.267 415.535 382.549 415.056 C 382.549 415.056 382.557 415.099 383.046 415.042 C 383.377 414.572 383.704 414.102 383.984 413.627 C 383.984 413.627 383.98 413.68 384.504 413.604 C 387.356 411.446 390.246 409.335 393.021 407.082 C 393.417 406.76 393.249 405.754 393.294 405.064 C 393.294 405.064 393.288 405.109 393.497 404.954 C 393.661 404.872 393.768 404.743 394.126 404.154 C 403.775 393.649 413.008 382.834 420.294 369.984 C 422.556 365.762 424.815 361.543 427.031 357.315 C 427.031 357.315 427.038 357.361 427.476 357.108 C 429.041 353.779 430.759 350.512 432.132 347.108 C 433.892 342.734 435.374 338.252 437.2 333.33 C 439.088 327.62 441.213 321.968 442.784 316.17 C 443.855 312.232 444.156 308.086 445.074 303.549 C 445.49 302.973 446.175 302.445 446.283 301.819 C 447.824 292.783 449.406 283.75 450.719 274.679 C 451.408 269.908 451.586 265.063 452.04 259.604 C 452.082 250.347 452.173 241.091 452.125 231.833 C 452.116 230.003 451.58 228.173 451.423 225.666 C 451.457 224.486 451.51 223.309 451.52 222.129 C 451.604 211.023 448.555 200.42 446.254 189.152 C 446.064 188.36 445.924 187.556 445.678 186.784 C 444.261 182.315 442.817 177.853 441.375 173.417 C 441.375 173.417 441.403 173.417 441.307 173.133 C 441.307 173.133 441.213 172.849 441.27 172.292 C 440.521 169.525 439.773 166.76 439.089 163.49 C 435.515 155.391 431.939 147.29 428.305 138.696 C 427.164 136.868 426.024 135.042 424.936 133.002 C 424.936 133.002 424.878 132.789 424.819 132.404 C 424.602 132.278 424.384 132.154 424.16 132.073 C 424.16 132.073 424.202 132.064 424.168 131.582 C 423.693 131.02 423.219 130.457 422.724 129.931 C 422.724 129.931 422.764 129.937 422.696 129.501 C 422.468 129.154 422.24 128.806 422.009 128.505 C 422.009 128.505 422.058 128.506 421.995 128.007 C 421.29 126.974 420.583 125.94 419.856 124.941 C 419.856 124.941 419.895 124.93 419.797 124.555 C 419.577 124.431 419.357 124.308 419.13 124.233 C 419.13 124.233 419.178 124.246 419.112 123.795 C 418.888 123.453 418.666 123.109 418.422 122.803 C 418.422 122.803 418.462 122.79 418.381 122.404 C 418.157 122.286 417.936 122.168 417.704 122.093 C 417.704 122.093 417.744 122.083 417.702 121.599 C 417.224 120.992 416.746 120.385 416.054 119.366 C 413.523 116.15 411.077 112.864 408.433 109.743 C 406.56 107.531 404.418 105.543 402.403 102.974 C 402.251 102.445 402.097 101.912 401.921 101.419 C 401.921 101.419 401.964 101.409 401.882 101.024 C 401.657 100.902 401.435 100.783 401.202 100.705 C 401.202 100.705 401.248 100.695 401.164 100.309 C 400.94 100.188 400.717 100.069 400.485 99.994 C 400.485 99.994 400.527 99.983 400.443 99.597 C 400.22 99.479 399.999 99.358 399.767 99.279 C 399.767 99.279 399.813 99.27 399.731 98.884 C 399.506 98.765 399.284 98.644 399.05 98.567 C 399.05 98.567 399.093 98.555 399.016 98.169 C 398.794 98.05 398.571 97.931 398.334 97.854 C 398.334 97.854 398.378 97.836 398.313 97.444 C 398.087 97.331 397.861 97.214 397.616 97.139 C 397.616 97.139 397.661 97.123 397.572 96.741 C 397.352 96.623 397.13 96.505 396.897 96.429 C 396.897 96.429 396.94 96.42 396.857 96.034 C 396.632 95.912 396.41 95.793 396.178 95.716 C 396.178 95.716 396.223 95.712 396.106 95.346 C 395.89 95.216 395.675 95.089 395.455 95.008 C 395.455 95.008 395.505 95.012 395.369 94.655 C 395.158 94.518 394.946 94.385 394.742 94.297 C 394.742 94.297 394.789 94.296 394.675 93.926 C 394.458 93.796 394.244 93.666 394.025 93.581 C 394.025 93.581 394.069 93.575 393.98 93.193 M 194.643 300.66 C 194.865 300.784 195.081 300.912 195.299 300.996 C 195.299 300.996 195.258 301.001 195.246 301.515 C 198.837 304.408 202.43 307.297 206.292 310.603 C 208.52 311.968 210.818 313.237 212.968 314.713 C 223.435 321.902 235.247 325.185 247.703 327.289 C 249.102 327.567 250.523 328.155 251.902 328.072 C 258.927 327.643 266.105 329.434 273.52 326.599 C 275.971 326.105 278.424 325.616 281.406 325.121 C 282.105 325.078 282.843 325.166 283.497 324.973 C 287.111 323.895 290.707 322.747 294.807 321.56 C 297.213 320.214 299.715 319.01 301.993 317.479 C 303.368 316.55 304.4 315.119 306.134 313.881 C 308.68 312.187 311.225 310.491 314.249 308.791 C 315.265 307.856 316.278 306.922 317.248 305.981 C 317.248 305.981 317.244 306.027 317.758 306.006 C 320.535 303.14 323.309 300.277 326.406 297.078 C 326.995 296.207 327.617 295.353 328.176 294.46 C 330.527 290.706 332.858 286.941 335.724 283.184 C 336.492 282.369 337.559 281.681 337.976 280.718 C 340.035 275.928 342.337 271.182 343.765 266.2 C 345.376 260.571 346.147 254.707 347.388 248.288 C 347.369 244.004 347.35 239.722 347.436 234.847 C 346.949 231.781 346.706 228.654 345.92 225.666 C 344.733 221.139 343.203 216.695 341.718 212.25 C 341.563 211.786 340.735 211.547 340.208 210.642 C 339.717 208.652 339.225 206.663 338.774 204.161 C 337.583 202.216 336.388 200.268 335.189 198.367 C 335.189 198.367 335.233 198.371 335.199 197.86 C 334.718 197.18 334.237 196.5 333.804 195.827 C 333.804 195.827 333.821 195.782 333.773 195.249 C 333.049 194.854 332.327 194.457 331.386 193.638 C 326.005 187.38 320.623 181.122 315.043 174.512 C 314.818 174.371 314.593 174.231 314.373 174.142 C 314.373 174.142 314.423 174.143 314.314 173.765 C 314.093 173.637 313.875 173.507 313.656 173.429 C 313.656 173.429 313.706 173.43 313.596 173.052 C 313.376 172.922 313.156 172.794 312.943 172.712 C 312.943 172.712 312.99 172.707 312.848 172.226 C 308.255 168.242 303.458 164.612 296.8 163.268 C 295.711 162.581 294.624 161.897 293.285 160.764 C 286.02 157.817 278.469 156.139 270.023 155.632 C 267.839 155.369 265.648 154.845 263.472 154.896 C 258.683 155.011 253.901 155.416 248.54 155.621 C 245.213 156.064 241.81 156.21 238.576 157.022 C 233.649 158.256 228.842 159.954 223.468 161.343 C 220.402 162.994 217.341 164.644 214.2 166.245 C 214.2 166.245 214.108 166.234 213.558 166.285 C 210.338 168.177 207.084 170.018 203.937 172.024 C 203.453 172.334 203.454 173.396 202.792 174.328 C 200.273 176.652 197.755 178.976 194.868 181.47 C 194.513 181.877 194.156 182.279 193.521 182.825 C 193.346 182.951 193.22 183.113 192.658 183.439 C 191.094 185.801 189.529 188.163 187.642 190.692 C 187.327 190.87 187.012 191.048 186.193 191.227 C 185.866 191.706 185.536 192.186 185.251 192.663 C 185.251 192.663 185.243 192.619 184.78 192.799 C 182.797 196.01 180.679 199.152 178.885 202.464 C 178.042 204.021 177.82 205.909 177.36 207.638 C 177.36 207.638 177.346 207.595 176.862 207.818 C 174.018 215.369 171.145 222.914 170.264 231.478 C 170.475 236.593 170.687 241.708 170.879 247.366 C 170.888 247.909 170.895 248.451 170.91 249.643 C 170.48 257.169 172.783 264.142 175.187 271.606 C 178.3 277.129 181.411 282.652 184.948 288.405 C 186.241 290.226 187.536 292.046 188.822 294.36 C 189.541 295.16 190.262 295.96 190.989 296.723 C 190.989 296.723 190.95 296.723 191.062 297.094 C 191.278 297.221 191.493 297.348 191.712 297.433 C 191.712 297.433 191.669 297.434 191.78 297.804 C 191.998 297.933 192.215 298.06 192.432 298.143 C 192.432 298.143 192.386 298.14 192.495 298.518 C 192.713 298.645 192.931 298.773 193.149 298.854 C 193.149 298.854 193.104 298.854 193.212 299.227 C 193.431 299.356 193.648 299.484 193.864 299.57 C 193.864 299.57 193.821 299.572 193.927 299.945 C 194.145 300.072 194.363 300.198 194.582 300.284 C 194.582 300.284 194.538 300.284 194.643 300.66 Z" style="fill: none;"/>
  <path opacity="1.000000" stroke="none" d="M 419.852 370.228 C 413.008 382.834 403.775 393.649 393.872 404.44 C 393.529 404.869 393.419 404.998 393.288 405.109 C 393.288 405.109 393.294 405.064 393.075 405.116 C 389.897 408.006 386.939 410.843 383.98 413.68 C 383.98 413.68 383.984 413.627 383.76 413.64 C 383.21 414.131 382.883 414.615 382.557 415.099 C 382.557 415.099 382.549 415.056 382.322 415.051 C 381.772 415.539 381.446 416.032 381.121 416.524 C 381.121 416.524 381.11 416.482 380.927 416.508 C 380.628 416.771 380.514 417.003 380.398 417.234 C 380.398 417.234 380.392 417.189 380.21 417.22 C 379.911 417.483 379.793 417.715 379.677 417.946 C 379.677 417.946 379.68 417.905 379.436 417.869 C 378.16 418.587 377.125 419.339 376.089 420.092 C 376.089 420.092 376.088 420.042 375.911 420.074 C 375.612 420.336 375.494 420.566 375.374 420.795 C 375.374 420.795 375.372 420.754 375.196 420.768 C 374.903 421.003 374.789 421.225 374.676 421.445 C 374.676 421.445 374.393 421.498 374.046 421.539 C 373.536 421.792 373.373 422.008 373.213 422.223 C 373.213 422.223 373.217 422.176 373.038 422.21 C 372.738 422.476 372.622 422.704 372.504 422.935 C 372.504 422.935 372.5 422.891 372.316 422.917 C 372.016 423.178 371.902 423.413 371.788 423.648 C 371.788 423.648 371.787 423.606 371.542 423.571 C 369.309 425 367.318 426.465 365.33 427.931 C 365.33 427.931 365.327 427.884 365.148 427.92 C 364.849 428.182 364.73 428.411 364.611 428.639 C 364.611 428.639 364.607 428.594 364.449 428.624 C 364.174 428.855 364.056 429.059 363.94 429.26 C 356.413 433.301 348.893 437.362 341.35 441.379 C 337.229 443.574 333.088 445.738 328.9 447.801 C 328.235 448.132 327.269 447.858 325.978 447.722 C 319.006 449.695 312.609 452.278 305.968 453.837 C 292.823 456.926 279.558 459.53 266.31 462.166 C 261.332 463.157 256.262 463.684 250.915 464.347 C 245.825 464.708 241.057 465.148 236.284 465.586 C 232.625 465.843 228.966 466.098 224.776 466.121 C 219.357 466.089 214.467 466.295 209.249 466.454 C 157.034 466.398 105.148 466.387 53.263 466.376 C 53.263 466.376 53.258 466.419 53.243 466.083 C 53.226 449.663 53.235 433.578 53.196 417.493 C 53.191 416.24 52.83 414.989 52.636 413.738 C 51.786 411.15 53.781 410.251 55.372 409.002 C 62.764 403.198 70.1 397.322 77.486 391.509 C 78.176 390.967 79.08 390.7 80.32 390.154 C 80.908 389.786 81.061 389.569 81.217 389.355 C 81.217 389.355 81.211 389.397 81.452 389.42 C 82.962 388.226 84.232 387.008 85.501 385.791 C 85.501 385.791 85.517 385.829 85.752 385.857 C 86.302 385.377 86.618 384.871 86.934 384.364 C 86.934 384.364 86.954 384.401 87.139 384.394 C 87.442 384.156 87.559 383.923 87.674 383.692 C 87.674 383.692 87.907 383.639 88.29 383.675 C 89.058 383.23 89.444 382.75 89.831 382.27 C 89.831 382.27 90.063 382.219 90.401 382.196 C 90.911 381.953 91.085 381.735 91.261 381.517 C 91.261 381.517 91.26 381.559 91.444 381.53 C 91.743 381.269 91.854 381.034 91.968 380.802 C 91.968 380.802 91.97 380.843 92.186 380.88 C 93.199 380.468 93.997 380.014 94.795 379.561 C 96.823 377.623 98.81 375.639 100.893 373.764 C 102.01 372.762 103.298 371.942 104.939 370.876 C 105.692 370.267 106.011 369.825 106.332 369.385 C 106.332 369.385 106.335 369.443 106.483 369.369 C 106.767 369.091 106.907 368.886 107.047 368.682 C 107.047 368.682 107.038 368.727 107.282 368.754 C 110.452 366.42 113.378 364.053 116.304 361.685 C 123.62 355.79 130.851 349.786 138.271 344.024 C 147.956 336.501 157.604 328.897 167.671 321.906 C 171.093 319.528 175.746 318.9 180.362 317.665 C 185.373 317.83 189.643 318.437 193.182 321.587 C 193.951 322.27 195.036 322.604 195.975 323.1 C 200.476 325.623 204.977 328.144 209.786 331.017 C 210.978 331.963 211.817 332.647 212.756 333.146 C 226.065 340.198 240.49 343.129 255.353 343.71 C 262.442 343.988 269.659 343.392 276.684 342.321 C 287.432 340.681 297.735 337.353 307.175 331.781 C 308.322 330.825 309.322 329.538 310.637 328.964 C 317.379 326.019 323.018 321.521 328.326 316.623 C 331.864 313.358 335.017 309.68 338.695 306.164 C 339.202 305.809 339.353 305.48 339.506 305.151 C 339.506 305.151 339.46 304.864 339.697 304.638 C 340.027 304.127 340.12 303.845 340.214 303.56 C 340.226 303.394 340.306 303.273 340.829 303.144 C 342.307 301.435 343.407 299.771 344.509 298.107 C 344.509 298.107 344.53 298.152 344.721 298.011 C 345.016 297.38 345.124 296.891 345.228 296.4 C 345.421 296.13 345.614 295.859 346.155 295.436 C 346.797 294.727 347.091 294.169 347.385 293.61 C 347.385 293.61 347.351 293.373 347.651 293.263 C 348.482 292.149 349.011 291.144 349.542 290.143 C 368.743 250.507 365.88 212.896 338.932 177.052 C 338.538 176.258 338.282 175.891 338.023 175.528 C 338.023 175.528 338.079 175.543 338.057 175.325 C 334.921 172.17 331.807 169.233 328.695 166.295 C 328.695 166.295 328.738 166.285 328.738 166.054 C 327.766 165.03 326.794 164.236 325.824 163.44 C 325.824 163.44 325.867 163.428 325.802 163.256 C 325.498 162.959 325.258 162.836 325.016 162.71 C 319.481 159.269 314.034 155.677 308.381 152.44 C 303.718 149.771 298.809 147.525 293.59 145.01 C 293.173 144.93 292.821 144.899 292.821 144.899 C 292.821 144.899 292.866 144.894 292.806 144.669 C 291.597 143.911 290.498 143.22 289.298 142.871 C 276.055 139.03 262.6 137.911 248.819 139.059 C 239.609 139.826 230.829 141.993 222.194 144.997 C 221.229 145.332 220.514 146.379 219.685 147.094 C 219.685 147.094 219.684 147.044 219.51 147.049 C 219.203 147.051 219.07 147.046 218.938 147.04 C 218.938 147.04 218.59 147.06 218.325 146.979 C 217.933 147.11 217.806 147.324 217.675 147.541 C 214.056 149.373 210.327 151.018 206.847 153.083 C 202.69 155.549 198.75 158.373 194.309 161.255 C 189.581 165.696 185.258 169.924 180.935 174.15 C 180.935 174.15 180.946 174.103 180.747 174.203 C 174.732 179.379 170.658 185.705 167.32 192.558 C 166.379 194.805 165.399 197.039 164.503 199.306 C 160.104 210.452 157.798 222.001 156.492 233.926 C 154.868 248.775 157.821 262.929 161.144 277.139 C 161.623 279.188 162.231 281.209 162.843 283.792 C 163.178 290.858 163.448 297.37 163.716 303.883 C 136.543 325.452 109.369 347.019 81.862 368.788 C 81.406 369.147 81.294 369.312 81.195 369.483 C 81.195 369.483 81.209 369.423 80.972 369.417 C 77.545 372.077 74.356 374.747 71.164 377.413 C 69.872 378.511 68.579 379.61 66.808 380.813 C 63.218 383.43 60.109 385.935 56.996 388.444 C 55.92 389.24 54.844 390.033 53.494 390.478 C 53.207 376.823 53.196 363.517 53.201 349.877 C 53.229 245.743 53.231 141.943 53.271 38.145 C 53.271 36.431 53.709 34.716 54.281 33.01 C 60.33 33.23 66.043 33.611 71.757 33.62 C 111.674 33.677 151.586 33.66 191.502 33.649 C 192.808 33.649 194.115 33.478 195.742 33.448 C 204.606 33.55 213.147 33.609 221.69 33.596 C 222.715 33.596 223.738 33.202 224.762 32.993 C 225.946 33.681 227.075 34.814 228.325 34.967 C 230.872 35.279 233.484 35.06 236.074 34.425 C 233.045 34.425 230.012 34.425 226.982 34.425 C 226.987 34.218 226.989 34.009 226.992 33.802 C 230.386 33.802 233.78 33.802 237.743 33.984 C 244.791 34.868 251.277 35.57 258.07 36.328 C 274.636 38.473 290.912 40.677 306.518 45.804 C 318.127 49.619 329.435 54.334 340.879 58.647 C 351.681 62.792 361.518 68.675 370.93 75.278 C 376.517 79.199 381.923 83.372 387.637 87.831 C 388.257 88.343 388.65 88.456 389.046 88.571 C 389.046 88.571 389.006 88.587 389.004 88.79 C 389.26 89.09 389.513 89.188 389.766 89.285 C 389.766 89.285 389.724 89.3 389.709 89.505 C 389.958 89.808 390.221 89.905 390.483 90.001 C 390.483 90.001 390.441 90.013 390.444 90.21 C 390.699 90.513 390.951 90.615 391.202 90.718 C 391.202 90.718 391.157 90.726 391.161 90.923 C 391.417 91.224 391.668 91.327 391.919 91.43 C 391.919 91.43 391.875 91.44 391.878 91.637 C 392.135 91.936 392.385 92.039 392.637 92.143 C 392.637 92.143 392.593 92.15 392.598 92.35 C 392.852 92.65 393.102 92.754 393.354 92.858 C 393.354 92.858 393.31 92.866 393.316 93.06 C 393.57 93.362 393.819 93.469 394.069 93.575 C 394.069 93.575 394.025 93.581 394.048 93.766 C 394.309 94.067 394.55 94.182 394.789 94.296 C 394.789 94.296 394.742 94.297 394.787 94.466 C 395.055 94.762 395.279 94.887 395.505 95.012 C 395.505 95.012 395.455 95.008 395.484 95.192 C 395.748 95.488 395.986 95.601 396.223 95.712 C 396.223 95.712 396.178 95.716 396.185 95.915 C 396.439 96.214 396.69 96.316 396.94 96.42 C 396.94 96.42 396.897 96.429 396.899 96.628 C 397.154 96.928 397.405 97.027 397.661 97.123 C 397.661 97.123 397.616 97.139 397.595 97.349 C 397.841 97.651 398.109 97.745 398.378 97.836 C 398.378 97.836 398.334 97.854 398.336 98.051 C 398.589 98.352 398.84 98.455 399.093 98.555 C 399.093 98.555 399.05 98.567 399.054 98.765 C 399.31 99.065 399.56 99.167 399.813 99.27 C 399.813 99.27 399.767 99.279 399.774 99.476 C 400.03 99.776 400.279 99.88 400.527 99.983 C 400.527 99.983 400.485 99.994 400.489 100.189 C 400.746 100.49 400.996 100.594 401.248 100.695 C 401.248 100.695 401.202 100.705 401.208 100.902 C 401.462 101.203 401.713 101.306 401.964 101.409 C 401.964 101.409 401.921 101.419 401.866 101.611 C 402.006 102.353 402.201 102.904 402.398 103.454 C 404.418 105.543 406.56 107.531 408.433 109.743 C 411.077 112.864 413.523 116.15 416.133 119.84 C 416.721 120.902 417.231 121.493 417.744 122.083 C 417.744 122.083 417.704 122.093 417.713 122.287 C 417.97 122.585 418.215 122.686 418.462 122.79 C 418.462 122.79 418.422 122.803 418.373 123.01 C 418.608 123.559 418.894 123.901 419.178 124.246 C 419.178 124.246 419.13 124.233 419.157 124.418 C 419.423 124.712 419.66 124.823 419.895 124.93 C 419.895 124.93 419.856 124.941 419.798 125.181 C 420.513 126.449 421.284 127.478 422.058 128.506 C 422.058 128.506 422.009 128.505 421.993 128.712 C 422.24 129.259 422.502 129.599 422.764 129.937 C 422.764 129.937 422.724 129.931 422.668 130.166 C 423.143 130.955 423.673 131.508 424.202 132.064 C 424.202 132.064 424.16 132.073 424.173 132.256 C 424.416 132.556 424.648 132.673 424.878 132.789 C 424.878 132.789 424.936 133.002 424.867 133.391 C 425.737 135.609 426.678 137.437 427.667 139.526 C 431.033 147.52 434.342 155.258 437.71 162.971 C 437.904 163.417 438.577 163.659 439.026 163.994 C 439.773 166.76 440.521 169.525 441.172 172.64 C 441.067 173.195 441.175 173.337 441.403 173.417 C 441.403 173.417 441.375 173.417 441.394 173.693 C 442.587 178.619 443.731 183.272 444.973 187.902 C 445.15 188.565 445.8 189.103 446.233 189.697 C 448.555 200.42 451.604 211.023 451.52 222.129 C 451.51 223.309 451.457 224.486 451.198 226.207 C 450.913 227.216 450.802 227.68 450.802 228.143 C 450.793 237.892 450.762 247.638 450.848 257.384 C 450.858 258.345 451.597 259.296 451.996 260.252 C 451.586 265.063 451.408 269.908 450.719 274.679 C 449.406 283.75 447.824 292.783 446.283 301.819 C 446.175 302.445 445.49 302.973 444.768 303.962 C 443.75 307.194 443.109 310.031 442.316 312.824 C 440.332 319.798 438.28 326.748 436.087 333.903 C 434.966 336.491 433.977 338.873 433.064 341.286 C 431.036 346.638 429.046 352.001 427.038 357.361 C 427.038 357.361 427.031 357.315 426.801 357.331 C 424.328 361.641 422.09 365.935 419.852 370.228 Z" fill="#2D3142" style=""/>
  <path opacity="1.000000" stroke="none" d="M 247.691 326.673 C 235.247 325.185 223.435 321.902 212.968 314.713 C 210.818 313.237 208.52 311.968 206.081 310.177 C 202.333 306.834 198.795 303.916 195.258 301.001 C 195.258 301.001 195.299 300.996 195.317 300.78 C 195.07 300.47 194.804 300.376 194.538 300.284 C 194.538 300.284 194.582 300.284 194.623 300.06 C 194.382 299.75 194.104 299.659 193.821 299.572 C 193.821 299.572 193.864 299.57 193.895 299.358 C 193.654 299.049 193.376 298.952 193.104 298.854 C 193.104 298.854 193.149 298.854 193.155 298.65 C 192.903 298.344 192.645 298.242 192.386 298.14 C 192.386 298.14 192.432 298.143 192.45 297.925 C 192.204 297.617 191.936 297.525 191.669 297.434 C 191.669 297.434 191.712 297.433 191.757 297.208 C 191.519 296.896 191.233 296.81 190.95 296.723 C 190.95 296.723 190.989 296.723 191.116 296.502 C 190.438 295.478 189.634 294.673 188.829 293.869 C 187.536 292.046 186.241 290.226 184.789 288.024 C 181.987 282.347 179.345 277.054 176.659 271.57 C 176.421 271.23 176.227 271.078 176.052 270.901 C 176.075 270.88 176.079 270.819 176.046 270.541 C 174.731 263.951 173.478 257.629 172.135 251.329 C 171.959 250.499 171.328 249.768 170.905 248.992 C 170.895 248.451 170.888 247.909 171.161 246.948 C 171.515 241.409 171.588 236.287 171.804 230.929 C 173.178 225.644 174.428 220.602 175.625 215.548 C 176.25 212.909 176.776 210.246 177.346 207.595 C 177.346 207.595 177.36 207.638 177.603 207.647 C 180.385 202.74 182.922 197.822 185.447 192.897 C 185.47 192.853 185.316 192.715 185.243 192.619 C 185.243 192.619 185.251 192.663 185.477 192.79 C 186.036 192.355 186.368 191.79 186.698 191.226 C 187.012 191.048 187.327 190.87 188.049 190.53 C 190.018 188.015 191.579 185.663 193.14 183.313 C 193.22 183.113 193.346 182.951 193.888 182.723 C 194.582 182.181 194.909 181.74 195.235 181.3 C 197.755 178.976 200.273 176.652 203.263 174.221 C 206.653 172.186 209.605 170.302 212.471 168.299 C 213.161 167.818 213.57 166.932 214.108 166.234 C 214.108 166.234 214.2 166.245 214.531 166.37 C 217.909 165.017 220.954 163.534 224.281 162.022 C 232.743 160.09 240.921 158.19 249.427 156.329 C 256.702 156.367 263.651 156.365 270.847 156.481 C 275.137 157.435 279.181 158.275 283.23 159.105 C 286.663 159.812 290.099 160.512 293.534 161.211 C 294.624 161.897 295.711 162.581 297.078 163.605 C 301.717 166.567 306.064 169.212 310.451 171.795 C 311.212 172.242 312.14 172.411 312.99 172.707 C 312.99 172.707 312.943 172.712 312.941 172.911 C 313.195 173.217 313.45 173.324 313.706 173.43 C 313.706 173.43 313.656 173.429 313.657 173.626 C 313.913 173.929 314.168 174.037 314.423 174.143 C 314.423 174.143 314.373 174.142 314.394 174.346 C 314.691 174.654 314.966 174.761 315.242 174.867 C 320.623 181.122 326.005 187.38 331.501 194.125 C 332.349 195.003 333.084 195.393 333.821 195.782 C 333.821 195.782 333.804 195.827 333.639 196.11 C 334.058 197.052 334.646 197.712 335.233 198.371 C 335.233 198.371 335.189 198.367 335.038 198.593 C 336.172 200.771 337.452 202.722 338.733 204.673 C 339.225 206.663 339.717 208.652 340.186 211.201 C 342.093 219.647 344.021 227.537 345.91 235.758 C 345.85 240.373 345.829 244.655 345.664 249.181 C 344.165 255.854 343.189 262.396 341.327 268.681 C 339.847 273.678 337.281 278.358 335.198 283.177 C 332.858 286.941 330.527 290.706 328.176 294.46 C 327.617 295.353 326.995 296.207 325.978 297.211 C 322.783 300.238 320.013 303.133 317.244 306.027 C 317.244 306.027 317.248 305.981 317.012 305.927 C 315.776 306.848 314.773 307.821 313.773 308.798 C 311.225 310.491 308.68 312.187 305.645 313.985 C 301.518 316.11 297.882 318.127 293.974 320.169 C 290.232 321.365 286.747 322.5 283.298 323.73 C 282.435 324.039 281.682 324.653 280.876 325.125 C 278.424 325.616 275.971 326.105 273.068 326.389 C 264.306 326.347 255.999 326.511 247.691 326.673 M 213.034 172.929 C 212.024 172.945 210.743 172.565 210.041 173.037 C 199.201 180.338 190.749 189.672 184.934 201.46 C 181.349 208.727 179.948 216.107 180.733 224.185 C 180.573 224.497 180.322 224.795 180.265 225.124 C 177.863 239.449 178.595 253.608 183.023 267.463 C 184.744 272.85 187.085 278.04 189.123 283.782 C 189.752 285.036 190.233 286.39 191.027 287.528 C 196.319 295.129 202.896 301.459 210.388 306.923 C 218.756 313.025 228.15 316.897 238.055 319.561 C 252.456 323.434 266.934 323.38 281.257 319.191 C 292.232 315.983 302.307 311.175 311.196 303.625 C 323.776 292.934 332.533 280.005 337.226 264.341 C 340.875 252.165 341.095 239.694 339.317 227.222 C 338.144 218.972 335.916 211.001 332.299 203.351 C 328.537 195.391 323.129 188.718 317.209 182.44 C 314.116 179.161 310.527 175.742 306.459 174.129 C 301.205 172.046 295.277 171.461 289.578 170.737 C 287.23 170.437 285.1 170.403 283.068 168.106 C 277.452 167.297 271.859 166.099 266.215 165.76 C 253.562 165 241.205 167.197 229.002 170.357 C 223.989 171.652 218.963 172.877 213.794 173.817 C 213.65 173.621 213.462 173.484 213.034 172.929 Z" fill="#0B0B0A" style=""/>
  <path opacity="1.000000" stroke="none" d="M 53.943 33.002 C 53.709 34.716 53.271 36.431 53.271 38.145 C 53.231 141.943 53.229 245.743 53.065 349.874 C 52.905 350.206 52.629 350.209 52.629 350.209 C 52.596 329.422 52.54 308.635 52.537 287.849 C 52.515 204.1 52.506 120.352 52.537 36.605 C 52.537 35.194 53.072 33.786 53.65 32.523 C 53.944 32.668 53.943 33.002 53.943 33.002 Z" fill="#535151" style=""/>
  <path opacity="1.000000" stroke="none" d="M 53.399 466.628 C 105.148 466.387 157.034 466.398 209.269 466.618 C 209.62 466.826 209.68 467.156 209.68 467.156 C 208.569 467.371 207.459 467.772 206.35 467.772 C 156.608 467.805 106.867 467.807 57.128 467.763 C 55.931 467.762 54.732 467.188 53.399 466.628 Z" fill="#818081" style=""/>
  <path opacity="1.000000" stroke="none" d="M 54.281 33.01 C 53.943 33.002 53.944 32.668 53.951 32.503 C 76.034 32.315 98.111 32.281 120.187 32.274 C 145.011 32.268 169.836 32.284 194.998 32.518 C 195.353 32.958 195.379 33.173 195.422 33.387 C 194.115 33.478 192.808 33.649 191.502 33.649 C 151.586 33.66 111.674 33.677 71.757 33.62 C 66.043 33.611 60.33 33.23 54.281 33.01 Z" fill="#5D5C5A" style=""/>
  <path opacity="1.000000" stroke="none" d="M 306.9 331.784 C 297.735 337.353 287.432 340.681 276.684 342.321 C 269.659 343.392 262.442 343.988 255.353 343.71 C 240.49 343.129 226.065 340.198 212.756 333.146 C 211.817 332.647 210.978 331.963 209.9 331.247 C 210.823 331.378 212.064 331.4 213.035 331.918 C 223.856 337.658 235.428 340.462 247.598 341.734 C 260.165 343.048 272.532 342.413 284.705 339.375 C 290.169 338.013 295.34 335.513 300.665 333.595 C 302.615 332.894 304.634 332.384 306.9 331.784 Z" fill="#7B7979" style=""/>
  <path opacity="1.000000" stroke="none" d="M 340.863 58.391 C 329.435 54.334 318.127 49.619 306.518 45.804 C 290.912 40.677 274.636 38.473 258.058 36.163 C 257.727 35.714 257.722 35.487 257.722 35.259 C 264.877 36.272 272.119 36.878 279.166 38.388 C 291.659 41.064 304.2 43.753 316.399 47.472 C 324.86 50.051 333.634 52.479 340.863 58.391 Z" fill="#747272" style=""/>
  <path opacity="1.000000" stroke="none" d="M 251.235 464.423 C 256.262 463.684 261.332 463.157 266.31 462.166 C 279.558 459.53 292.823 456.926 305.968 453.837 C 312.609 452.278 319.006 449.695 325.685 447.708 C 322.087 449.513 318.46 451.685 314.528 452.772 C 302.445 456.108 290.339 459.478 278.061 461.96 C 269.505 463.687 260.652 463.976 251.593 464.82 C 251.252 464.735 251.235 464.423 251.235 464.423 Z" fill="#7C7878" style=""/>
  <path opacity="1.000000" stroke="none" d="M 219.964 147.072 C 220.514 146.379 221.229 145.332 222.194 144.997 C 230.829 141.993 239.609 139.826 248.819 139.059 C 262.6 137.911 276.055 139.03 289.298 142.871 C 290.498 143.22 291.597 143.911 292.807 144.693 C 288.574 143.891 284.295 142.769 279.979 141.816 C 277.582 141.287 275.136 140.921 272.693 140.679 C 259.445 139.363 246.26 139.701 233.281 142.841 C 228.852 143.911 224.584 145.629 219.964 147.072 Z" fill="#6A686A" style=""/>
  <path opacity="1.000000" stroke="none" d="M 335.46 283.182 C 337.281 278.358 339.847 273.678 341.327 268.681 C 343.189 262.396 344.165 255.854 345.91 249.189 C 346.627 248.953 346.955 248.947 347.283 248.945 C 346.147 254.707 345.376 260.571 343.765 266.2 C 342.337 271.182 340.035 275.928 337.976 280.718 C 337.559 281.681 336.492 282.369 335.46 283.182 Z" fill="#797673" style=""/>
  <path opacity="1.000000" stroke="none" d="M 195.742 33.448 C 195.379 33.173 195.353 32.958 195.332 32.574 C 205.029 32.425 214.729 32.441 224.597 32.726 C 223.738 33.202 222.715 33.596 221.69 33.596 C 213.147 33.609 204.606 33.55 195.742 33.448 Z" fill="#797673" style=""/>
  <path opacity="1.000000" stroke="none" d="M 436.255 333.709 C 438.28 326.748 440.332 319.798 442.316 312.824 C 443.109 310.031 443.75 307.194 444.631 304.206 C 444.156 308.086 443.855 312.232 442.784 316.17 C 441.213 321.968 439.088 327.62 436.907 333.552 C 436.493 333.751 436.375 333.73 436.255 333.709 Z" fill="#5D5C5F" style=""/>
  <path opacity="1.000000" stroke="none" d="M 52.61 414.062 C 52.83 414.989 53.191 416.24 53.196 417.493 C 53.235 433.578 53.226 449.663 53.221 466.086 C 52.979 465.438 52.54 464.452 52.54 463.467 C 52.522 447.106 52.562 430.744 52.61 414.062 Z" fill="#535151" style=""/>
  <path opacity="1.000000" stroke="none" d="M 247.697 326.981 C 255.999 326.511 264.306 326.347 272.792 326.432 C 266.105 329.434 258.927 327.643 251.902 328.072 C 250.523 328.155 249.102 327.567 247.697 326.981 Z" fill="#747272" style=""/>
  <path opacity="1.000000" stroke="none" d="M 436.087 333.903 C 436.375 333.73 436.493 333.751 436.795 333.792 C 435.374 338.252 433.892 342.734 432.132 347.108 C 430.759 350.512 429.041 353.779 427.257 357.233 C 429.046 352.001 431.036 346.638 433.064 341.286 C 433.977 338.873 434.966 336.491 436.087 333.903 Z" fill="#747272" style=""/>
  <path opacity="1.000000" stroke="none" d="M 345.947 235.424 C 344.021 227.537 342.093 219.647 340.194 211.48 C 340.735 211.547 341.563 211.786 341.718 212.25 C 343.203 216.695 344.733 221.139 345.92 225.666 C 346.706 228.654 346.949 231.781 347.155 235.128 C 346.564 235.413 346.255 235.421 345.947 235.424 Z" fill="#807B76" style=""/>
  <path opacity="1.000000" stroke="none" d="M 439.057 163.742 C 438.577 163.659 437.904 163.417 437.71 162.971 C 434.342 155.258 431.033 147.52 427.851 139.503 C 428.114 139.208 428.238 139.199 428.362 139.188 C 431.939 147.29 435.515 155.391 439.057 163.742 Z" fill="#6C6A69" style=""/>
  <path opacity="1.000000" stroke="none" d="M 249.101 156.292 C 240.921 158.19 232.743 160.09 224.275 161.871 C 223.988 161.755 223.981 161.454 223.981 161.454 C 228.842 159.954 233.649 158.256 238.576 157.022 C 241.81 156.21 245.213 156.064 248.824 155.808 C 249.108 155.997 249.101 156.292 249.101 156.292 Z" fill="#625F5F" style=""/>
  <path opacity="1.000000" stroke="none" d="M 177.103 207.705 C 176.776 210.246 176.25 212.909 175.625 215.548 C 174.428 220.602 173.178 225.644 171.579 230.915 C 171.054 231.126 170.901 231.112 170.751 231.099 C 171.145 222.914 174.018 215.369 177.103 207.705 Z" fill="#706D69" style=""/>
  <path opacity="1.000000" stroke="none" d="M 167.526 192.44 C 170.658 185.705 174.732 179.379 180.771 174.206 C 178.011 178.37 175.066 182.655 172.034 186.881 C 170.688 188.757 169.171 190.513 167.526 192.44 Z" fill="#797673" style=""/>
  <path opacity="1.000000" stroke="none" d="M 170.907 249.317 C 171.328 249.768 171.959 250.499 172.135 251.329 C 173.478 257.629 174.731 263.951 175.857 270.62 C 175.565 271.006 175.429 271.038 175.298 271.075 C 172.783 264.142 170.48 257.169 170.907 249.317 Z" fill="#706D69" style=""/>
  <path opacity="1.000000" stroke="none" d="M 293.409 160.987 C 290.099 160.512 286.663 159.812 283.23 159.105 C 279.181 158.275 275.137 157.435 270.858 156.321 C 270.623 156.044 270.634 155.722 270.634 155.722 C 278.469 156.139 286.02 157.817 293.409 160.987 Z" fill="#797674" style=""/>
  <path opacity="1.000000" stroke="none" d="M 452.016 259.927 C 451.597 259.296 450.858 258.345 450.848 257.384 C 450.762 247.638 450.793 237.892 450.802 228.143 C 450.802 227.68 450.913 227.216 451.128 226.546 C 451.58 228.173 452.116 230.003 452.125 231.833 C 452.173 241.091 452.082 250.347 452.016 259.927 Z" fill="#706D6C" style=""/>
  <path opacity="1.000000" stroke="none" d="M 52.594 350.541 C 52.629 350.209 52.905 350.206 53.043 350.209 C 53.196 363.517 53.207 376.823 53.22 390.46 C 52.983 389.718 52.546 388.643 52.54 387.569 C 52.509 375.336 52.54 363.105 52.594 350.541 Z" fill="#625F5F" style=""/>
  <path opacity="1.000000" stroke="none" d="M 185.014 192.708 C 185.316 192.715 185.47 192.853 185.447 192.897 C 182.922 197.822 180.385 202.74 177.582 207.654 C 177.82 205.909 178.042 204.021 178.885 202.464 C 180.679 199.152 182.797 196.01 185.014 192.708 Z" fill="#84807E" style=""/>
  <path opacity="1.000000" stroke="none" d="M 175.241 271.339 C 175.429 271.038 175.565 271.006 175.889 270.896 C 176.079 270.819 176.075 270.88 176.101 271.086 C 176.318 271.445 176.509 271.604 176.702 271.76 C 179.345 277.054 181.987 282.347 184.578 287.907 C 181.411 282.652 178.3 277.129 175.241 271.339 Z" fill="#797674" style=""/>
  <path opacity="1.000000" stroke="none" d="M 181.189 174.129 C 185.258 169.924 189.581 165.696 194.143 161.459 C 190.068 165.668 185.754 169.891 181.189 174.129 Z" fill="#818081" style=""/>
  <path opacity="1.000000" stroke="none" d="M 312.918 172.467 C 312.14 172.411 311.212 172.242 310.451 171.795 C 306.064 169.212 301.717 166.567 297.305 163.704 C 303.458 164.612 308.255 168.242 312.918 172.467 Z" fill="#75716E" style=""/>
  <path opacity="1.000000" stroke="none" d="M 384.241 413.641 C 386.939 410.843 389.897 408.006 393.096 405.12 C 393.249 405.754 393.417 406.76 393.021 407.082 C 390.246 409.335 387.356 411.446 384.241 413.641 Z" fill="#797674" style=""/>
  <path opacity="1.000000" stroke="none" d="M 170.507 231.291 C 170.901 231.112 171.054 231.126 171.432 231.15 C 171.588 236.287 171.515 241.409 171.169 246.675 C 170.687 241.708 170.475 236.593 170.507 231.291 Z" fill="#75716E" style=""/>
  <path opacity="1.000000" stroke="none" d="M 257.421 35.193 C 257.722 35.487 257.727 35.714 257.749 36.106 C 251.277 35.57 244.791 34.868 238.088 34.037 C 243.647 34.052 249.425 34.171 255.203 34.371 C 255.848 34.392 256.48 34.861 257.421 35.193 Z" fill="#6A686A" style=""/>
  <path opacity="1.000000" stroke="none" d="M 270.329 155.678 C 270.634 155.722 270.623 156.044 270.611 156.203 C 263.651 156.365 256.702 156.367 249.427 156.329 C 249.101 156.292 249.108 155.997 249.111 155.849 C 253.901 155.416 258.683 155.011 263.472 154.896 C 265.648 154.845 267.839 155.369 270.329 155.678 Z" fill="#706D6C" style=""/>
  <path opacity="1.000000" stroke="none" d="M 250.915 464.347 C 251.235 464.423 251.252 464.735 251.267 464.885 C 246.453 465.321 241.623 465.602 236.538 465.735 C 241.057 465.148 245.825 464.708 250.915 464.347 Z" fill="#818081" style=""/>
  <path opacity="1.000000" stroke="none" d="M 213.833 166.258 C 213.57 166.932 213.161 167.818 212.471 168.299 C 209.605 170.302 206.653 172.186 203.48 174.112 C 203.454 173.396 203.453 172.334 203.937 172.024 C 207.084 170.018 210.338 168.177 213.833 166.258 Z" fill="#625F5F" style=""/>
  <path opacity="1.000000" stroke="none" d="M 195.251 301.26 C 198.795 303.916 202.333 306.834 205.948 309.969 C 202.43 307.297 198.837 304.408 195.251 301.26 Z" fill="#6C6A69" style=""/>
  <path opacity="1.000000" stroke="none" d="M 345.91 235.758 C 346.255 235.421 346.564 235.413 347.1 235.423 C 347.35 239.722 347.369 244.004 347.335 248.619 C 346.955 248.947 346.627 248.953 346.054 248.946 C 345.829 244.655 345.85 240.373 345.91 235.758 Z" fill="#959388" style=""/>
  <path opacity="1.000000" stroke="none" d="M 294.244 320.146 C 297.882 318.127 301.518 316.11 305.37 314.002 C 304.4 315.119 303.368 316.55 301.993 317.479 C 299.715 319.01 297.213 320.214 294.539 321.345 C 294.264 320.804 294.253 320.473 294.244 320.146 Z" fill="#75716E" style=""/>
  <path opacity="1.000000" stroke="none" d="M 195.955 322.842 C 195.036 322.604 193.951 322.27 193.182 321.587 C 189.643 318.437 185.373 317.83 180.664 317.716 C 185.687 316.781 190.639 317.244 194.792 320.96 C 195.274 321.39 195.557 322.04 195.955 322.842 Z" fill="#6C6A69" style=""/>
  <path opacity="1.000000" stroke="none" d="M 446.244 189.426 C 445.8 189.103 445.15 188.565 444.973 187.902 C 443.731 183.272 442.587 178.619 441.396 173.682 C 442.817 177.853 444.261 182.315 445.678 186.784 C 445.924 187.556 446.064 188.36 446.244 189.426 Z" fill="#5D5C5A" style=""/>
  <path opacity="1.000000" stroke="none" d="M 420.072 370.106 C 422.09 365.935 424.328 361.641 426.824 357.335 C 424.815 361.543 422.556 365.762 420.072 370.106 Z" fill="#747272" style=""/>
  <path opacity="1.000000" stroke="none" d="M 210.011 467.118 C 209.68 467.156 209.62 466.826 209.599 466.664 C 214.467 466.295 219.357 466.089 224.443 466.102 C 221.408 466.574 218.178 466.866 214.945 467.066 C 213.416 467.159 211.878 467.08 210.011 467.118 Z" fill="#676462" style=""/>
  <path opacity="1.000000" stroke="none" d="M 328.703 166.548 C 331.807 169.233 334.921 172.17 338.05 175.354 C 334.948 172.669 331.829 169.735 328.703 166.548 Z" fill="#7C7878" style=""/>
  <path opacity="1.000000" stroke="none" d="M 293.974 320.169 C 294.253 320.473 294.264 320.804 294.293 321.378 C 290.707 322.747 287.111 323.895 283.497 324.973 C 282.843 325.166 282.105 325.078 281.142 325.123 C 281.682 324.653 282.435 324.039 283.298 323.73 C 286.747 322.5 290.232 321.365 293.974 320.169 Z" fill="#625F5F" style=""/>
  <path opacity="1.000000" stroke="none" d="M 317.5 306.014 C 320.013 303.133 322.783 300.238 325.818 297.378 C 323.309 300.277 320.535 303.14 317.5 306.014 Z" fill="#6C6A69" style=""/>
  <path opacity="1.000000" stroke="none" d="M 57.236 388.456 C 60.109 385.935 63.218 383.43 66.581 380.879 C 63.713 383.382 60.596 385.925 57.236 388.456 Z" fill="#706D6C" style=""/>
  <path opacity="1.000000" stroke="none" d="M 71.419 377.362 C 74.356 374.747 77.545 372.077 81.003 369.423 C 78.069 372.063 74.873 374.69 71.419 377.362 Z" fill="#706D6C" style=""/>
  <path opacity="1.000000" stroke="none" d="M 163.983 303.725 C 163.448 297.37 163.178 290.858 162.957 284.027 C 163.619 285.298 164.737 286.883 164.754 288.476 C 164.809 293.502 164.448 298.535 163.983 303.725 Z" fill="#797673" style=""/>
  <path opacity="1.000000" stroke="none" d="M 116.052 361.659 C 113.378 364.053 110.452 366.42 107.26 368.746 C 109.931 366.348 112.866 363.99 116.052 361.659 Z" fill="#706D6C" style=""/>
  <path opacity="1.000000" stroke="none" d="M 223.723 161.397 C 223.981 161.454 223.988 161.755 223.995 161.903 C 220.954 163.534 217.909 165.017 214.566 166.396 C 217.341 164.644 220.402 162.994 223.723 161.397 Z" fill="#676462" style=""/>
  <path opacity="1.000000" stroke="none" d="M 192.9 183.374 C 191.579 185.663 190.018 188.015 188.21 190.445 C 189.529 188.163 191.094 185.801 192.9 183.374 Z" fill="#222323" style=""/>
  <path opacity="1.000000" stroke="none" d="M 338.754 204.417 C 337.452 202.722 336.172 200.771 335.043 198.572 C 336.388 200.268 337.583 202.216 338.754 204.417 Z" fill="#84807E" style=""/>
  <path opacity="1.000000" stroke="none" d="M 365.594 427.909 C 367.318 426.465 369.309 425 371.56 423.578 C 369.834 425.043 367.844 426.465 365.594 427.909 Z" fill="#797674" style=""/>
  <path opacity="1.000000" stroke="none" d="M 428.334 138.941 C 428.238 139.199 428.114 139.208 427.806 139.241 C 426.678 137.437 425.737 135.609 424.837 133.499 C 426.024 135.042 427.164 136.868 428.334 138.941 Z" fill="#797673" style=""/>
  <path opacity="1.000000" stroke="none" d="M 344.271 298.2 C 343.407 299.771 342.307 301.435 340.94 303.121 C 341.793 301.528 342.912 299.909 344.271 298.2 Z" fill="#706D6C" style=""/>
  <path opacity="1.000000" stroke="none" d="M 85.245 385.807 C 84.232 387.008 82.962 388.226 81.432 389.411 C 82.442 388.194 83.715 387.009 85.245 385.807 Z" fill="#747272" style=""/>
  <path opacity="1.000000" stroke="none" d="M 314.01 308.796 C 314.773 307.821 315.776 306.848 317.035 305.93 C 316.278 306.922 315.265 307.856 314.01 308.796 Z" fill="#6C6A69" style=""/>
  <path opacity="1.000000" stroke="none" d="M 325.838 163.695 C 326.794 164.236 327.766 165.03 328.733 166.075 C 327.77 165.533 326.81 164.741 325.838 163.695 Z" fill="#7C7878" style=""/>
  <path opacity="1.000000" stroke="none" d="M 376.356 420.053 C 377.125 419.339 378.16 418.587 379.458 417.877 C 378.688 418.618 377.657 419.318 376.356 420.053 Z" fill="#797674" style=""/>
  <path opacity="1.000000" stroke="none" d="M 422.025 128.258 C 421.284 127.478 420.513 126.449 419.811 125.164 C 420.583 125.94 421.29 126.974 422.025 128.258 Z" fill="#797673" style=""/>
  <path opacity="1.000000" stroke="none" d="M 188.825 294.115 C 189.634 294.673 190.438 295.478 191.112 296.521 C 190.262 295.96 189.541 295.16 188.825 294.115 Z" fill="#6C6A69" style=""/>
  <path opacity="1.000000" stroke="none" d="M 349.331 290.262 C 349.011 291.144 348.482 292.149 347.689 293.148 C 347.991 292.222 348.556 291.301 349.331 290.262 Z" fill="#706D6C" style=""/>
  <path opacity="1.000000" stroke="none" d="M 94.519 379.551 C 93.997 380.014 93.199 380.468 92.169 380.871 C 92.704 380.394 93.472 379.966 94.519 379.551 Z" fill="#747272" style=""/>
  <path opacity="1.000000" stroke="none" d="M 417.723 121.841 C 417.231 121.493 416.721 120.902 416.238 120.044 C 416.746 120.385 417.224 120.992 417.723 121.841 Z" fill="#797673" style=""/>
  <path opacity="1.000000" stroke="none" d="M 424.187 131.824 C 423.673 131.508 423.143 130.955 422.68 130.147 C 423.219 130.457 423.693 131.02 424.187 131.824 Z" fill="#797673" style=""/>
  <path opacity="1.000000" stroke="none" d="M 335.215 198.117 C 334.646 197.712 334.058 197.052 333.612 196.106 C 334.237 196.5 334.718 197.18 335.215 198.117 Z" fill="#84807E" style=""/>
  <path opacity="1.000000" stroke="none" d="M 333.797 195.516 C 333.084 195.393 332.349 195.003 331.607 194.336 C 332.327 194.457 333.049 194.854 333.797 195.516 Z" fill="#84807E" style=""/>
  <path opacity="1.000000" stroke="none" d="M 382.802 415.071 C 382.883 414.615 383.21 414.131 383.785 413.64 C 383.704 414.102 383.377 414.572 382.802 415.071 Z" fill="#797674" style=""/>
  <path opacity="1.000000" stroke="none" d="M 381.37 416.5 C 381.446 416.032 381.772 415.539 382.344 415.056 C 382.267 415.535 381.943 416.004 381.37 416.5 Z" fill="#797674" style=""/>
  <path opacity="1.000000" stroke="none" d="M 186.445 191.227 C 186.368 191.79 186.036 192.355 185.455 192.791 C 185.536 192.186 185.866 191.706 186.445 191.227 Z" fill="#84807E" style=""/>
  <path opacity="1.000000" stroke="none" d="M 86.683 384.374 C 86.618 384.871 86.302 385.377 85.733 385.847 C 85.798 385.337 86.116 384.861 86.683 384.374 Z" fill="#747272" style=""/>
  <path opacity="1.000000" stroke="none" d="M 402.401 103.216 C 402.201 102.904 402.006 102.353 401.874 101.59 C 402.097 101.912 402.251 102.445 402.401 103.216 Z" fill="#84807E" style=""/>
  <path opacity="1.000000" stroke="none" d="M 89.607 382.319 C 89.444 382.75 89.058 383.23 88.406 383.698 C 88.554 383.249 88.971 382.808 89.607 382.319 Z" fill="#747272" style=""/>
  <path opacity="1.000000" stroke="none" d="M 195.052 181.387 C 194.909 181.74 194.582 182.181 194.03 182.653 C 194.156 182.279 194.513 181.877 195.052 181.387 Z" fill="#222323" style=""/>
  <path opacity="1.000000" stroke="none" d="M 347.203 293.746 C 347.091 294.169 346.797 294.727 346.239 295.291 C 346.324 294.826 346.674 294.354 347.203 293.746 Z" fill="#706D6C" style=""/>
  <path opacity="1.000000" stroke="none" d="M 106.165 369.501 C 106.011 369.825 105.692 370.267 105.165 370.78 C 105.305 370.44 105.652 370.031 106.165 369.501 Z" fill="#706D6C" style=""/>
  <path opacity="1.000000" stroke="none" d="M 339.365 305.276 C 339.353 305.48 339.202 305.809 338.922 306.073 C 338.936 305.805 339.079 305.601 339.365 305.276 Z" fill="#706D6C" style=""/>
  <path opacity="1.000000" stroke="none" d="M 345.04 296.574 C 345.124 296.891 345.016 297.38 344.698 298.018 C 344.607 297.696 344.731 297.22 345.04 296.574 Z" fill="#706D6C" style=""/>
  <path opacity="1.000000" stroke="none" d="M 217.806 147.502 C 217.806 147.324 217.933 147.11 218.152 146.966 C 218.166 147.198 218.061 147.342 217.806 147.502 Z" fill="#6A686A" style=""/>
  <path opacity="1.000000" stroke="none" d="M 338.066 175.758 C 338.282 175.891 338.538 176.258 338.792 176.857 C 338.561 176.725 338.334 176.356 338.066 175.758 Z" fill="#7C7878" style=""/>
  <path opacity="1.000000" stroke="none" d="M 419.145 124.02 C 418.894 123.901 418.608 123.559 418.383 122.992 C 418.666 123.109 418.888 123.453 419.145 124.02 Z" fill="#797673" style=""/>
  <path opacity="1.000000" stroke="none" d="M 422.731 129.719 C 422.502 129.599 422.24 129.259 421.997 128.688 C 422.24 128.806 422.468 129.154 422.731 129.719 Z" fill="#797673" style=""/>
  <path opacity="1.000000" stroke="none" d="M 388.952 88.368 C 388.65 88.456 388.257 88.343 387.717 88.063 C 388.001 87.987 388.428 88.079 388.952 88.368 Z" fill="#84807E" style=""/>
  <path opacity="1.000000" stroke="none" d="M 380.583 417.178 C 380.514 417.003 380.628 416.771 380.949 416.508 C 381.025 416.695 380.895 416.909 380.583 417.178 Z" fill="#797674" style=""/>
  <path opacity="1.000000" stroke="none" d="M 91.78 380.854 C 91.854 381.034 91.743 381.269 91.424 381.527 C 91.343 381.334 91.468 381.119 91.78 380.854 Z" fill="#747272" style=""/>
  <path opacity="1.000000" stroke="none" d="M 91.06 381.582 C 91.085 381.735 90.911 381.953 90.517 382.225 C 90.484 382.064 90.671 381.856 91.06 381.582 Z" fill="#747272" style=""/>
  <path opacity="1.000000" stroke="none" d="M 441.356 173.275 C 441.175 173.337 441.067 173.195 441.144 172.919 C 441.213 172.849 441.307 173.133 441.356 173.275 Z" fill="#5D5C5A" style=""/>
  <path opacity="1.000000" stroke="none" d="M 87.481 383.718 C 87.559 383.923 87.442 384.156 87.12 384.388 C 87.039 384.173 87.163 383.959 87.481 383.718 Z" fill="#747272" style=""/>
  <path opacity="1.000000" stroke="none" d="M 313.65 173.242 C 313.45 173.324 313.195 173.217 312.938 172.889 C 313.156 172.794 313.376 172.922 313.65 173.242 Z" fill="#75716E" style=""/>
  <path opacity="1.000000" stroke="none" d="M 81.025 389.419 C 81.061 389.569 80.908 389.786 80.551 390.057 C 80.509 389.906 80.671 389.693 81.025 389.419 Z" fill="#747272" style=""/>
  <path opacity="1.000000" stroke="none" d="M 393.393 405.032 C 393.419 404.998 393.529 404.869 393.718 404.644 C 393.768 404.743 393.661 404.872 393.393 405.032 Z" fill="#797674" style=""/>
  <path opacity="1.000000" stroke="none" d="M 393.31 92.665 C 393.102 92.754 392.852 92.65 392.601 92.327 C 392.825 92.231 393.044 92.351 393.31 92.665 Z" fill="#84807E" style=""/>
  <path opacity="1.000000" stroke="none" d="M 392.592 91.95 C 392.385 92.039 392.135 91.936 391.884 91.615 C 392.106 91.519 392.328 91.639 392.592 91.95 Z" fill="#84807E" style=""/>
  <path opacity="1.000000" stroke="none" d="M 325.117 162.882 C 325.258 162.836 325.498 162.959 325.807 163.279 C 325.656 163.333 325.435 163.194 325.117 162.882 Z" fill="#7C7878" style=""/>
  <path opacity="1.000000" stroke="none" d="M 424.851 132.597 C 424.648 132.673 424.416 132.556 424.174 132.235 C 424.384 132.154 424.602 132.278 424.851 132.597 Z" fill="#797673" style=""/>
  <path opacity="1.000000" stroke="none" d="M 314.367 173.954 C 314.168 174.037 313.913 173.929 313.656 173.602 C 313.875 173.507 314.093 173.637 314.367 173.954 Z" fill="#75716E" style=""/>
  <path opacity="1.000000" stroke="none" d="M 379.864 417.89 C 379.793 417.715 379.911 417.483 380.231 417.222 C 380.308 417.408 380.178 417.62 379.864 417.89 Z" fill="#797674" style=""/>
  <path opacity="1.000000" stroke="none" d="M 375.56 420.739 C 375.494 420.566 375.612 420.336 375.934 420.074 C 376.007 420.254 375.875 420.466 375.56 420.739 Z" fill="#797674" style=""/>
  <path opacity="1.000000" stroke="none" d="M 374.863 421.421 C 374.789 421.225 374.903 421.003 375.214 420.772 C 375.292 420.973 375.172 421.185 374.863 421.421 Z" fill="#797674" style=""/>
  <path opacity="1.000000" stroke="none" d="M 373.404 422.151 C 373.373 422.008 373.536 421.792 373.905 421.518 C 373.938 421.665 373.767 421.874 373.404 422.151 Z" fill="#797674" style=""/>
  <path opacity="1.000000" stroke="none" d="M 372.686 422.874 C 372.622 422.704 372.738 422.476 373.061 422.214 C 373.134 422.393 373.002 422.605 372.686 422.874 Z" fill="#797674" style=""/>
  <path opacity="1.000000" stroke="none" d="M 371.975 423.594 C 371.902 423.413 372.016 423.178 372.335 422.919 C 372.417 423.112 372.291 423.327 371.975 423.594 Z" fill="#797674" style=""/>
  <path opacity="1.000000" stroke="none" d="M 389.723 89.093 C 389.513 89.188 389.26 89.09 389.009 88.769 C 389.236 88.665 389.455 88.783 389.723 89.093 Z" fill="#84807E" style=""/>
  <path opacity="1.000000" stroke="none" d="M 364.797 428.582 C 364.73 428.411 364.849 428.182 365.172 427.92 C 365.244 428.098 365.111 428.312 364.797 428.582 Z" fill="#797674" style=""/>
  <path opacity="1.000000" stroke="none" d="M 364.119 429.23 C 364.056 429.059 364.174 428.855 364.472 428.626 C 364.534 428.8 364.418 429.002 364.119 429.23 Z" fill="#797674" style=""/>
  <path opacity="1.000000" stroke="none" d="M 391.875 91.239 C 391.668 91.327 391.417 91.224 391.167 90.9 C 391.389 90.805 391.609 90.928 391.875 91.239 Z" fill="#84807E" style=""/>
  <path opacity="1.000000" stroke="none" d="M 219.02 147.154 C 219.07 147.046 219.203 147.051 219.536 147.049 C 219.525 147.117 219.315 147.193 219.02 147.154 Z" fill="#6A686A" style=""/>
  <path opacity="1.000000" stroke="none" d="M 292.9 145.004 C 292.821 144.899 293.173 144.93 293.349 144.916 C 293.343 144.973 293.16 145.041 292.9 145.004 Z" fill="#6A686A" style=""/>
  <path opacity="1.000000" stroke="none" d="M 391.157 90.527 C 390.951 90.615 390.699 90.513 390.45 90.19 C 390.673 90.092 390.893 90.213 391.157 90.527 Z" fill="#84807E" style=""/>
  <path opacity="1.000000" stroke="none" d="M 390.446 89.808 C 390.221 89.905 389.958 89.808 389.718 89.483 C 389.962 89.378 390.185 89.497 390.446 89.808 Z" fill="#84807E" style=""/>
  <path opacity="1.000000" stroke="none" d="M 397.614 96.932 C 397.405 97.027 397.154 96.928 396.905 96.608 C 397.13 96.505 397.352 96.623 397.614 96.932 Z" fill="#84807E" style=""/>
  <path opacity="1.000000" stroke="none" d="M 191.005 296.908 C 191.233 296.81 191.519 296.896 191.757 297.228 C 191.493 297.348 191.278 297.221 191.005 296.908 Z" fill="#6C6A69" style=""/>
  <path opacity="1.000000" stroke="none" d="M 191.724 297.619 C 191.936 297.525 192.204 297.617 192.45 297.95 C 192.215 298.06 191.998 297.933 191.724 297.619 Z" fill="#6C6A69" style=""/>
  <path opacity="1.000000" stroke="none" d="M 398.345 97.642 C 398.109 97.745 397.841 97.651 397.605 97.329 C 397.861 97.214 398.087 97.331 398.345 97.642 Z" fill="#84807E" style=""/>
  <path opacity="1.000000" stroke="none" d="M 192.439 298.328 C 192.645 298.242 192.903 298.344 193.155 298.672 C 192.931 298.773 192.713 298.645 192.439 298.328 Z" fill="#6C6A69" style=""/>
  <path opacity="1.000000" stroke="none" d="M 399.054 98.361 C 398.84 98.455 398.589 98.352 398.342 98.032 C 398.571 97.931 398.794 98.05 399.054 98.361 Z" fill="#84807E" style=""/>
  <path opacity="1.000000" stroke="none" d="M 193.156 299.04 C 193.376 298.952 193.654 299.049 193.895 299.381 C 193.648 299.484 193.431 299.356 193.156 299.04 Z" fill="#6C6A69" style=""/>
  <path opacity="1.000000" stroke="none" d="M 193.875 299.758 C 194.104 299.659 194.382 299.75 194.623 300.082 C 194.363 300.198 194.145 300.072 193.875 299.758 Z" fill="#6C6A69" style=""/>
  <path opacity="1.000000" stroke="none" d="M 194.591 300.471 C 194.804 300.376 195.07 300.47 195.317 300.801 C 195.081 300.912 194.865 300.784 194.591 300.471 Z" fill="#6C6A69" style=""/>
  <path opacity="1.000000" stroke="none" d="M 399.771 99.077 C 399.56 99.167 399.31 99.065 399.061 98.744 C 399.284 98.644 399.506 98.765 399.771 99.077 Z" fill="#84807E" style=""/>
  <path opacity="1.000000" stroke="none" d="M 340.044 303.695 C 340.12 303.845 340.027 304.127 339.72 304.495 C 339.627 304.328 339.751 304.08 340.044 303.695 Z" fill="#706D6C" style=""/>
  <path opacity="1.000000" stroke="none" d="M 396.899 96.226 C 396.69 96.316 396.439 96.214 396.187 95.893 C 396.41 95.793 396.632 95.912 396.899 96.226 Z" fill="#84807E" style=""/>
  <path opacity="1.000000" stroke="none" d="M 400.485 99.791 C 400.279 99.88 400.03 99.776 399.779 99.456 C 399.999 99.358 400.22 99.479 400.485 99.791 Z" fill="#84807E" style=""/>
  <path opacity="1.000000" stroke="none" d="M 401.206 100.5 C 400.996 100.594 400.746 100.49 400.494 100.17 C 400.717 100.069 400.94 100.188 401.206 100.5 Z" fill="#84807E" style=""/>
  <path opacity="1.000000" stroke="none" d="M 401.922 101.215 C 401.713 101.306 401.462 101.203 401.211 100.882 C 401.435 100.783 401.657 100.902 401.922 101.215 Z" fill="#84807E" style=""/>
  <path opacity="1.000000" stroke="none" d="M 418.422 122.597 C 418.215 122.686 417.97 122.585 417.719 122.266 C 417.936 122.168 418.157 122.286 418.422 122.597 Z" fill="#797673" style=""/>
  <path opacity="1.000000" stroke="none" d="M 396.163 95.527 C 395.986 95.601 395.748 95.488 395.485 95.168 C 395.675 95.089 395.89 95.216 396.163 95.527 Z" fill="#84807E" style=""/>
  <path opacity="1.000000" stroke="none" d="M 395.437 94.834 C 395.279 94.887 395.055 94.762 394.784 94.443 C 394.946 94.385 395.158 94.518 395.437 94.834 Z" fill="#84807E" style=""/>
  <path opacity="1.000000" stroke="none" d="M 394.731 94.11 C 394.55 94.182 394.309 94.067 394.049 93.743 C 394.244 93.666 394.458 93.796 394.731 94.11 Z" fill="#84807E" style=""/>
  <path opacity="1.000000" stroke="none" d="M 394.025 93.384 C 393.819 93.469 393.57 93.362 393.32 93.039 C 393.539 92.947 393.761 93.069 394.025 93.384 Z" fill="#84807E" style=""/>
  <path opacity="1.000000" stroke="none" d="M 81.328 369.397 C 81.294 369.312 81.406 369.147 81.629 368.881 C 81.757 369.01 81.67 369.191 81.328 369.397 Z" fill="#706D6C" style=""/>
  <path opacity="1.000000" stroke="none" d="M 106.87 368.757 C 106.907 368.886 106.767 369.091 106.454 369.372 C 106.416 369.242 106.556 369.036 106.87 368.757 Z" fill="#706D6C" style=""/>
  <path opacity="1.000000" stroke="none" d="M 315.142 174.688 C 314.966 174.761 314.691 174.654 314.392 174.32 C 314.593 174.231 314.818 174.371 315.142 174.688 Z" fill="#75716E" style=""/>
  <path opacity="1.000000" stroke="none" d="M 419.847 124.743 C 419.66 124.823 419.423 124.712 419.163 124.393 C 419.357 124.308 419.577 124.431 419.847 124.743 Z" fill="#797673" style=""/>
  <path opacity="1.000000" stroke="none" d="M 283.533 168.43 C 285.1 170.403 287.23 170.437 289.578 170.737 C 295.277 171.461 301.205 172.046 306.459 174.129 C 310.527 175.742 314.116 179.161 317.209 182.44 C 323.129 188.718 328.537 195.391 332.299 203.351 C 335.916 211.001 338.144 218.972 339.317 227.222 C 341.095 239.694 340.875 252.165 337.226 264.341 C 332.533 280.005 323.776 292.934 311.196 303.625 C 302.307 311.175 292.232 315.983 281.257 319.191 C 266.934 323.38 252.456 323.434 238.055 319.561 C 228.15 316.897 218.756 313.025 210.388 306.923 C 202.896 301.459 196.319 295.129 191.027 287.528 C 190.233 286.39 189.752 285.036 189.347 283.463 C 189.301 278.414 189.031 273.685 188.984 268.781 C 191.279 264.207 190.619 260.294 186.929 256.608 C 191.466 256.829 191.116 253.804 191.348 251.005 C 192.155 250.272 192.922 249.591 193.203 248.752 C 198.868 231.748 207.477 216.457 220.401 203.87 C 225.807 198.606 231.711 193.774 237.796 189.289 C 242.919 185.512 248.455 182.187 254.122 179.259 C 262.702 174.83 271.902 172.026 281.474 170.441 C 282.251 170.314 282.851 169.127 283.533 168.43 M 284.771 238.185 C 282.444 229.69 277.622 223.296 268.986 220.438 C 256.74 216.389 245.557 220.149 238.849 230.06 C 232.797 239.002 233.054 248.882 238.952 258.108 C 245.003 267.573 253.963 271.175 264.95 269.176 C 279.775 266.477 287.946 252.685 284.771 238.185 Z" fill="#BEBFBF" style=""/>
  <path opacity="1.000000" stroke="none" d="M 283.301 168.268 C 282.851 169.127 282.251 170.314 281.474 170.441 C 271.902 172.026 262.702 174.83 254.122 179.259 C 248.455 182.187 242.919 185.512 237.796 189.289 C 231.711 193.774 225.807 198.606 220.401 203.87 C 207.477 216.457 198.868 231.748 193.203 248.752 C 192.922 249.591 192.155 250.272 191.329 250.738 C 189.859 247.097 188.676 243.749 187.435 240.133 C 185.355 234.592 183.332 229.315 181.308 224.039 C 179.948 216.107 181.349 208.727 184.934 201.46 C 190.749 189.672 199.201 180.338 210.041 173.037 C 210.743 172.565 212.024 172.945 213.106 173.393 C 213.435 173.95 213.689 174.042 213.943 174.134 C 218.963 172.877 223.989 171.652 229.002 170.357 C 241.205 167.197 253.562 165 266.215 165.76 C 271.859 166.099 277.452 167.297 283.301 168.268 Z" fill="#FCFCFC" style=""/>
  <path opacity="1.000000" stroke="none" d="M 181.021 224.115 C 183.332 229.315 185.355 234.592 187.195 240.32 C 186.659 248.663 186.165 256.551 186.079 264.446 C 186.063 266.002 185.593 268.824 188.763 268.954 C 189.031 273.685 189.301 278.414 189.355 283.231 C 187.085 278.04 184.744 272.85 183.023 267.463 C 178.595 253.608 177.863 239.449 180.265 225.124 C 180.322 224.795 180.573 224.497 181.021 224.115 Z" fill="#807B76" style=""/>
  <path opacity="1.000000" stroke="none" d="M 213.869 173.977 C 213.689 174.042 213.435 173.95 213.204 173.636 C 213.462 173.484 213.65 173.621 213.869 173.977 Z" fill="#222323" style=""/>
  <path opacity="1.000000" stroke="none" d="M 176.659 271.57 C 176.509 271.604 176.318 271.445 176.079 271.108 C 176.227 271.078 176.421 271.23 176.659 271.57 Z" fill="#706D69" style=""/>
  <path opacity="1.000000" stroke="none" d="M 284.783 238.486 C 287.946 252.685 279.775 266.477 264.95 269.176 C 253.963 271.175 245.003 267.573 238.952 258.108 C 233.054 248.882 232.797 239.002 238.849 230.06 C 245.557 220.149 256.74 216.389 268.986 220.438 C 277.622 223.296 282.444 229.69 284.783 238.486 M 256.786 238.53 C 255.82 236.618 255.258 234.279 253.783 232.905 C 251.928 231.175 249.317 230.251 247.049 228.952 C 244.823 227.676 243.011 228.473 242.694 230.686 C 242.27 233.627 242.209 236.765 242.789 239.661 C 243.388 242.652 247.155 244.766 250.284 244.544 C 253.741 244.298 256.163 242.738 256.786 238.53 Z" fill="#060505" style=""/>
  <path opacity="1.000000" stroke="none" d="M 188.984 268.781 C 185.593 268.824 186.063 266.002 186.079 264.446 C 186.165 256.551 186.659 248.663 187.251 240.588 C 188.676 243.749 189.859 247.097 191.062 250.714 C 191.116 253.804 191.466 256.829 186.929 256.608 C 190.619 260.294 191.279 264.207 188.984 268.781 M 187.767 259.971 C 187.767 259.971 187.803 260.036 187.767 259.971 Z" fill="#ACA8A7" style=""/>
  <path opacity="1.000000" stroke="none" d="M 256.761 238.806 C 256.163 242.738 253.741 244.298 250.284 244.544 C 247.155 244.766 243.388 242.652 242.789 239.661 C 242.209 236.765 242.27 233.627 242.694 230.686 C 243.011 228.473 244.823 227.676 247.049 228.952 C 249.317 230.251 251.928 231.175 253.783 232.905 C 255.258 234.279 255.82 236.618 256.761 238.806 Z" fill="#F0F0F0" style=""/>
  <path opacity="1.000000" stroke="none" d="M 187.785 260.004 C 187.803 260.036 187.767 259.971 187.785 260.004 Z" fill="#BEBFBF" style=""/>
</svg>