<svg xmlns="http://www.w3.org/2000/svg" xmlns:xlink="http://www.w3.org/1999/xlink" zoomAndPan="magnify" preserveAspectRatio="xMidYMid meet" version="1.0" viewBox="319.53 263.91 800.42 282.22"><defs><g/></defs><path fill="#ef8354" d="M 557.617188 482.90625 C 553.183594 491.078125 547.199219 498.085938 540.78125 505.078125 C 540.5625 505.355469 540.488281 505.4375 540.40625 505.511719 C 540.40625 505.511719 540.410156 505.480469 540.265625 505.515625 C 538.207031 507.386719 536.289062 509.226562 534.375 511.066406 C 534.375 511.066406 534.375 511.03125 534.230469 511.039062 C 533.875 511.355469 533.664062 511.671875 533.449219 511.984375 C 533.449219 511.984375 533.445312 511.957031 533.296875 511.953125 C 532.941406 512.269531 532.730469 512.589844 532.519531 512.90625 C 532.519531 512.90625 532.511719 512.878906 532.394531 512.898438 C 532.199219 513.066406 532.128906 513.21875 532.050781 513.367188 C 532.050781 513.367188 532.046875 513.339844 531.929688 513.359375 C 531.738281 513.527344 531.660156 513.679688 531.585938 513.828125 C 531.585938 513.828125 531.585938 513.800781 531.429688 513.777344 C 530.601562 514.246094 529.929688 514.730469 529.261719 515.21875 C 529.261719 515.21875 529.257812 515.1875 529.144531 515.207031 C 528.949219 515.378906 528.875 515.527344 528.796875 515.675781 C 528.796875 515.675781 528.796875 515.648438 528.679688 515.65625 C 528.492188 515.808594 528.417969 515.953125 528.34375 516.097656 C 528.34375 516.097656 528.160156 516.128906 527.9375 516.15625 C 527.605469 516.320312 527.5 516.460938 527.394531 516.601562 C 527.394531 516.601562 527.398438 516.570312 527.28125 516.59375 C 527.089844 516.765625 527.011719 516.914062 526.9375 517.0625 C 526.9375 517.0625 526.933594 517.035156 526.816406 517.050781 C 526.621094 517.21875 526.546875 517.371094 526.472656 517.523438 C 526.472656 517.523438 526.472656 517.496094 526.3125 517.472656 C 524.867188 518.398438 523.578125 519.347656 522.289062 520.300781 C 522.289062 520.300781 522.285156 520.269531 522.171875 520.292969 C 521.976562 520.460938 521.898438 520.609375 521.820312 520.757812 C 521.820312 520.757812 521.820312 520.730469 521.71875 520.75 C 521.539062 520.898438 521.460938 521.03125 521.386719 521.160156 C 516.507812 523.777344 511.636719 526.410156 506.75 529.011719 C 504.078125 530.4375 501.394531 531.839844 498.679688 533.175781 C 498.25 533.390625 497.625 533.210938 496.789062 533.125 C 492.269531 534.402344 488.125 536.074219 483.820312 537.085938 C 475.304688 539.089844 466.707031 540.777344 458.121094 542.484375 C 454.898438 543.125 451.613281 543.46875 448.148438 543.898438 C 444.847656 544.128906 441.757812 544.414062 438.667969 544.699219 C 436.296875 544.867188 433.925781 545.03125 431.207031 545.046875 C 427.699219 545.027344 424.527344 545.160156 421.148438 545.261719 C 387.3125 545.226562 353.691406 545.21875 320.070312 545.210938 C 320.070312 545.210938 320.066406 545.238281 320.054688 545.023438 C 320.042969 534.382812 320.050781 523.957031 320.023438 513.535156 C 320.023438 512.722656 319.789062 511.914062 319.664062 511.101562 C 319.113281 509.425781 320.402344 508.84375 321.433594 508.035156 C 326.226562 504.273438 330.980469 500.464844 335.765625 496.699219 C 336.210938 496.347656 336.796875 496.171875 337.601562 495.820312 C 337.984375 495.582031 338.082031 495.441406 338.183594 495.300781 C 338.183594 495.300781 338.179688 495.328125 338.335938 495.34375 C 339.3125 494.570312 340.136719 493.78125 340.957031 492.992188 C 340.957031 492.992188 340.96875 493.015625 341.121094 493.035156 C 341.476562 492.722656 341.683594 492.394531 341.886719 492.066406 C 341.886719 492.066406 341.898438 492.09375 342.019531 492.085938 C 342.214844 491.933594 342.292969 491.78125 342.367188 491.632812 C 342.367188 491.632812 342.519531 491.597656 342.765625 491.621094 C 343.265625 491.332031 343.515625 491.023438 343.765625 490.710938 C 343.765625 490.710938 343.914062 490.679688 344.132812 490.664062 C 344.464844 490.503906 344.578125 490.363281 344.691406 490.222656 C 344.691406 490.222656 344.691406 490.25 344.808594 490.230469 C 345.003906 490.0625 345.074219 489.910156 345.148438 489.757812 C 345.148438 489.757812 345.152344 489.785156 345.289062 489.808594 C 345.945312 489.542969 346.464844 489.25 346.980469 488.957031 C 348.296875 487.699219 349.582031 486.414062 350.933594 485.199219 C 351.65625 484.550781 352.492188 484.019531 353.554688 483.328125 C 354.042969 482.933594 354.25 482.648438 354.457031 482.363281 C 354.457031 482.363281 354.460938 482.398438 354.554688 482.351562 C 354.738281 482.171875 354.828125 482.039062 354.921875 481.90625 C 354.921875 481.90625 354.914062 481.933594 355.074219 481.953125 C 357.128906 480.441406 359.023438 478.90625 360.917969 477.371094 C 365.660156 473.550781 370.34375 469.660156 375.152344 465.925781 C 381.429688 461.050781 387.679688 456.125 394.203125 451.59375 C 396.421875 450.054688 399.4375 449.648438 402.429688 448.847656 C 405.675781 448.953125 408.441406 449.347656 410.734375 451.386719 C 411.234375 451.832031 411.9375 452.046875 412.546875 452.367188 C 415.460938 454.003906 418.378906 455.636719 421.496094 457.5 C 422.269531 458.113281 422.8125 458.554688 423.421875 458.878906 C 432.042969 463.449219 441.390625 465.347656 451.023438 465.722656 C 455.617188 465.902344 460.292969 465.519531 464.84375 464.824219 C 471.808594 463.761719 478.488281 461.605469 484.605469 457.992188 C 485.347656 457.375 485.996094 456.539062 486.847656 456.167969 C 491.214844 454.261719 494.871094 451.34375 498.308594 448.171875 C 500.601562 446.054688 502.644531 443.671875 505.027344 441.394531 C 505.355469 441.164062 505.453125 440.949219 505.554688 440.738281 C 505.554688 440.738281 505.523438 440.550781 505.679688 440.40625 C 505.890625 440.074219 505.953125 439.890625 506.011719 439.707031 C 506.019531 439.597656 506.074219 439.519531 506.410156 439.4375 C 507.367188 438.328125 508.082031 437.25 508.796875 436.171875 C 508.796875 436.171875 508.808594 436.203125 508.933594 436.109375 C 509.125 435.703125 509.195312 435.386719 509.261719 435.066406 C 509.386719 434.890625 509.511719 434.714844 509.863281 434.441406 C 510.277344 433.984375 510.46875 433.621094 510.660156 433.257812 C 510.660156 433.257812 510.636719 433.105469 510.832031 433.035156 C 511.371094 432.3125 511.714844 431.660156 512.058594 431.011719 C 524.5 405.328125 522.644531 380.957031 505.183594 357.730469 C 504.925781 357.214844 504.761719 356.976562 504.59375 356.742188 C 504.59375 356.742188 504.628906 356.75 504.613281 356.609375 C 502.582031 354.566406 500.566406 352.664062 498.546875 350.757812 C 498.546875 350.757812 498.578125 350.753906 498.578125 350.601562 C 497.945312 349.9375 497.316406 349.425781 496.6875 348.910156 C 496.6875 348.910156 496.714844 348.902344 496.671875 348.789062 C 496.476562 348.597656 496.320312 348.519531 496.164062 348.4375 C 492.578125 346.207031 489.046875 343.878906 485.386719 341.78125 C 482.363281 340.050781 479.183594 338.597656 475.800781 336.964844 C 475.53125 336.914062 475.300781 336.894531 475.300781 336.894531 C 475.300781 336.894531 475.332031 336.890625 475.292969 336.746094 C 474.507812 336.253906 473.796875 335.804688 473.019531 335.582031 C 464.4375 333.089844 455.71875 332.367188 446.789062 333.109375 C 440.820312 333.605469 435.132812 335.011719 429.535156 336.957031 C 428.910156 337.175781 428.445312 337.855469 427.910156 338.316406 C 427.910156 338.316406 427.910156 338.285156 427.796875 338.289062 C 427.597656 338.289062 427.511719 338.285156 427.425781 338.28125 C 427.425781 338.28125 427.199219 338.292969 427.027344 338.242188 C 426.773438 338.328125 426.691406 338.464844 426.609375 338.605469 C 424.261719 339.792969 421.847656 340.859375 419.589844 342.199219 C 416.898438 343.796875 414.34375 345.625 411.464844 347.492188 C 408.402344 350.371094 405.601562 353.109375 402.800781 355.847656 C 402.800781 355.847656 402.808594 355.820312 402.679688 355.882812 C 398.78125 359.238281 396.140625 363.335938 393.976562 367.777344 C 393.367188 369.234375 392.734375 370.679688 392.152344 372.148438 C 389.300781 379.371094 387.808594 386.855469 386.960938 394.585938 C 385.910156 404.207031 387.820312 413.378906 389.976562 422.585938 C 390.285156 423.914062 390.679688 425.222656 391.078125 426.898438 C 391.292969 431.476562 391.46875 435.695312 391.640625 439.917969 C 374.035156 453.894531 356.425781 467.867188 338.601562 481.976562 C 338.304688 482.207031 338.234375 482.3125 338.167969 482.425781 C 338.167969 482.425781 338.175781 482.386719 338.023438 482.382812 C 335.804688 484.105469 333.738281 485.835938 331.667969 487.5625 C 330.832031 488.273438 329.992188 488.988281 328.847656 489.765625 C 326.519531 491.460938 324.503906 493.085938 322.488281 494.710938 C 321.789062 495.226562 321.09375 495.742188 320.21875 496.03125 C 320.03125 487.179688 320.023438 478.558594 320.027344 469.71875 C 320.046875 402.242188 320.046875 334.980469 320.074219 267.71875 C 320.074219 266.605469 320.359375 265.496094 320.726562 264.390625 C 324.648438 264.53125 328.351562 264.78125 332.050781 264.785156 C 357.917969 264.824219 383.78125 264.8125 409.648438 264.804688 C 410.492188 264.804688 411.339844 264.695312 412.394531 264.675781 C 418.140625 264.742188 423.671875 264.777344 429.210938 264.769531 C 429.875 264.769531 430.535156 264.515625 431.199219 264.378906 C 431.96875 264.824219 432.699219 265.558594 433.507812 265.660156 C 435.160156 265.859375 436.851562 265.71875 438.53125 265.308594 C 436.566406 265.308594 434.601562 265.308594 432.636719 265.308594 C 432.640625 265.171875 432.644531 265.039062 432.644531 264.902344 C 434.84375 264.902344 437.042969 264.902344 439.613281 265.023438 C 444.179688 265.59375 448.382812 266.050781 452.785156 266.539062 C 463.519531 267.929688 474.066406 269.359375 484.179688 272.679688 C 491.699219 275.152344 499.027344 278.207031 506.445312 281.003906 C 513.445312 283.6875 519.816406 287.5 525.917969 291.78125 C 529.539062 294.320312 533.039062 297.023438 536.742188 299.914062 C 537.144531 300.246094 537.398438 300.320312 537.65625 300.394531 C 537.65625 300.394531 537.628906 300.40625 537.628906 300.535156 C 537.792969 300.730469 537.957031 300.792969 538.121094 300.855469 C 538.121094 300.855469 538.09375 300.867188 538.085938 301 C 538.246094 301.195312 538.417969 301.257812 538.585938 301.320312 C 538.585938 301.320312 538.558594 301.328125 538.5625 301.457031 C 538.726562 301.652344 538.890625 301.71875 539.054688 301.785156 C 539.054688 301.785156 539.023438 301.789062 539.027344 301.917969 C 539.191406 302.113281 539.355469 302.179688 539.519531 302.246094 C 539.519531 302.246094 539.488281 302.253906 539.492188 302.378906 C 539.65625 302.574219 539.820312 302.640625 539.984375 302.707031 C 539.984375 302.707031 539.953125 302.714844 539.957031 302.84375 C 540.121094 303.039062 540.285156 303.105469 540.449219 303.171875 C 540.449219 303.171875 540.417969 303.175781 540.421875 303.304688 C 540.585938 303.5 540.75 303.566406 540.910156 303.636719 C 540.910156 303.636719 540.882812 303.640625 540.898438 303.761719 C 541.066406 303.957031 541.222656 304.03125 541.378906 304.105469 C 541.378906 304.105469 541.347656 304.105469 541.375 304.214844 C 541.550781 304.40625 541.695312 304.488281 541.839844 304.566406 C 541.839844 304.566406 541.808594 304.566406 541.828125 304.683594 C 542 304.875 542.152344 304.949219 542.304688 305.019531 C 542.304688 305.019531 542.277344 305.023438 542.28125 305.152344 C 542.445312 305.347656 542.609375 305.414062 542.769531 305.480469 C 542.769531 305.480469 542.742188 305.484375 542.746094 305.613281 C 542.910156 305.808594 543.074219 305.875 543.238281 305.9375 C 543.238281 305.9375 543.210938 305.945312 543.195312 306.082031 C 543.355469 306.277344 543.527344 306.339844 543.703125 306.398438 C 543.703125 306.398438 543.675781 306.410156 543.675781 306.535156 C 543.839844 306.730469 544.003906 306.800781 544.167969 306.863281 C 544.167969 306.863281 544.136719 306.871094 544.140625 307 C 544.308594 307.195312 544.46875 307.261719 544.632812 307.328125 C 544.632812 307.328125 544.601562 307.332031 544.609375 307.460938 C 544.773438 307.65625 544.933594 307.722656 545.09375 307.789062 C 545.09375 307.789062 545.070312 307.796875 545.070312 307.921875 C 545.238281 308.117188 545.398438 308.183594 545.5625 308.25 C 545.5625 308.25 545.53125 308.257812 545.535156 308.382812 C 545.703125 308.578125 545.863281 308.644531 546.027344 308.714844 C 546.027344 308.714844 546 308.71875 545.964844 308.84375 C 546.054688 309.324219 546.179688 309.683594 546.308594 310.039062 C 547.617188 311.390625 549.003906 312.679688 550.21875 314.113281 C 551.933594 316.136719 553.515625 318.265625 555.207031 320.65625 C 555.589844 321.34375 555.917969 321.726562 556.253906 322.109375 C 556.253906 322.109375 556.226562 322.117188 556.230469 322.242188 C 556.398438 322.433594 556.558594 322.5 556.71875 322.566406 C 556.71875 322.566406 556.691406 322.578125 556.660156 322.710938 C 556.8125 323.066406 556.996094 323.289062 557.179688 323.511719 C 557.179688 323.511719 557.148438 323.503906 557.167969 323.621094 C 557.339844 323.8125 557.492188 323.886719 557.644531 323.953125 C 557.644531 323.953125 557.621094 323.960938 557.582031 324.117188 C 558.046875 324.9375 558.546875 325.605469 559.046875 326.273438 C 559.046875 326.273438 559.015625 326.269531 559.003906 326.40625 C 559.164062 326.761719 559.335938 326.980469 559.503906 327.199219 C 559.503906 327.199219 559.480469 327.195312 559.441406 327.347656 C 559.75 327.859375 560.09375 328.21875 560.4375 328.578125 C 560.4375 328.578125 560.410156 328.582031 560.417969 328.703125 C 560.574219 328.894531 560.726562 328.972656 560.875 329.046875 C 560.875 329.046875 560.914062 329.183594 560.867188 329.4375 C 561.433594 330.875 562.042969 332.058594 562.683594 333.414062 C 564.863281 338.59375 567.007812 343.605469 569.191406 348.605469 C 569.316406 348.894531 569.753906 349.050781 570.042969 349.269531 C 570.527344 351.058594 571.011719 352.851562 571.433594 354.871094 C 571.367188 355.230469 571.433594 355.324219 571.582031 355.375 C 571.582031 355.375 571.566406 355.375 571.578125 355.554688 C 572.351562 358.746094 573.09375 361.761719 573.898438 364.761719 C 574.011719 365.191406 574.433594 365.539062 574.714844 365.921875 C 576.21875 372.871094 578.195312 379.742188 578.140625 386.941406 C 578.132812 387.703125 578.097656 388.46875 577.929688 389.582031 C 577.746094 390.234375 577.671875 390.535156 577.671875 390.835938 C 577.667969 397.152344 577.648438 403.46875 577.703125 409.785156 C 577.710938 410.40625 578.1875 411.023438 578.449219 411.644531 C 578.183594 414.761719 578.066406 417.898438 577.621094 420.992188 C 576.769531 426.871094 575.742188 432.722656 574.746094 438.578125 C 574.675781 438.984375 574.230469 439.328125 573.765625 439.96875 C 573.105469 442.0625 572.6875 443.898438 572.175781 445.710938 C 570.890625 450.230469 569.558594 454.734375 568.136719 459.371094 C 567.410156 461.046875 566.769531 462.589844 566.179688 464.152344 C 564.867188 467.621094 563.574219 471.097656 562.273438 474.570312 C 562.273438 474.570312 562.269531 474.539062 562.121094 474.550781 C 560.519531 477.34375 559.070312 480.125 557.617188 482.90625 Z M 557.617188 482.90625 " fill-opacity="1" fill-rule="nonzero"/><path fill="#0b0b0a" d="M 446.058594 454.683594 C 437.996094 453.71875 430.339844 451.59375 423.558594 446.933594 C 422.164062 445.976562 420.675781 445.15625 419.09375 443.996094 C 416.664062 441.828125 414.375 439.9375 412.082031 438.046875 C 412.082031 438.046875 412.109375 438.046875 412.121094 437.90625 C 411.960938 437.703125 411.789062 437.644531 411.613281 437.585938 C 411.613281 437.585938 411.644531 437.585938 411.667969 437.4375 C 411.515625 437.238281 411.332031 437.179688 411.148438 437.121094 C 411.148438 437.121094 411.179688 437.121094 411.199219 436.984375 C 411.042969 436.785156 410.863281 436.722656 410.683594 436.65625 C 410.683594 436.65625 410.714844 436.65625 410.71875 436.523438 C 410.554688 436.328125 410.386719 436.261719 410.21875 436.195312 C 410.21875 436.195312 410.25 436.195312 410.261719 436.054688 C 410.101562 435.855469 409.929688 435.796875 409.753906 435.738281 C 409.753906 435.738281 409.785156 435.738281 409.8125 435.589844 C 409.660156 435.386719 409.472656 435.332031 409.289062 435.277344 C 409.289062 435.277344 409.316406 435.277344 409.398438 435.132812 C 408.957031 434.46875 408.4375 433.949219 407.914062 433.425781 C 407.078125 432.246094 406.238281 431.066406 405.296875 429.640625 C 403.480469 425.960938 401.769531 422.53125 400.027344 418.976562 C 399.875 418.757812 399.75 418.660156 399.636719 418.542969 C 399.652344 418.53125 399.652344 418.492188 399.632812 418.3125 C 398.78125 414.039062 397.96875 409.945312 397.097656 405.859375 C 396.984375 405.324219 396.574219 404.851562 396.300781 404.347656 C 396.292969 403.996094 396.289062 403.644531 396.464844 403.023438 C 396.695312 399.433594 396.742188 396.113281 396.882812 392.640625 C 397.773438 389.21875 398.582031 385.949219 399.359375 382.675781 C 399.765625 380.964844 400.105469 379.238281 400.472656 377.523438 C 400.472656 377.523438 400.484375 377.550781 400.640625 377.554688 C 402.445312 374.375 404.085938 371.1875 405.722656 367.996094 C 405.738281 367.96875 405.640625 367.878906 405.589844 367.816406 C 405.589844 367.816406 405.597656 367.84375 405.742188 367.929688 C 406.105469 367.644531 406.320312 367.28125 406.535156 366.914062 C 406.738281 366.800781 406.941406 366.683594 407.410156 366.464844 C 408.6875 364.832031 409.699219 363.308594 410.707031 361.785156 C 410.761719 361.65625 410.84375 361.550781 411.195312 361.40625 C 411.644531 361.054688 411.855469 360.765625 412.066406 360.480469 C 413.699219 358.976562 415.332031 357.46875 417.269531 355.894531 C 419.464844 354.578125 421.378906 353.355469 423.234375 352.058594 C 423.683594 351.746094 423.949219 351.171875 424.296875 350.71875 C 424.296875 350.71875 424.355469 350.726562 424.570312 350.808594 C 426.757812 349.929688 428.730469 348.96875 430.886719 347.992188 C 436.371094 346.738281 441.671875 345.507812 447.183594 344.300781 C 451.898438 344.324219 456.398438 344.324219 461.0625 344.398438 C 463.84375 345.019531 466.464844 345.5625 469.085938 346.101562 C 471.3125 346.558594 473.539062 347.011719 475.765625 347.464844 C 476.46875 347.910156 477.175781 348.351562 478.0625 349.015625 C 481.066406 350.933594 483.882812 352.648438 486.726562 354.324219 C 487.21875 354.613281 487.820312 354.722656 488.371094 354.914062 C 488.371094 354.914062 488.339844 354.917969 488.339844 355.046875 C 488.503906 355.246094 488.667969 355.3125 488.835938 355.382812 C 488.835938 355.382812 488.804688 355.382812 488.804688 355.507812 C 488.96875 355.707031 489.136719 355.777344 489.300781 355.84375 C 489.300781 355.84375 489.269531 355.84375 489.28125 355.976562 C 489.472656 356.175781 489.652344 356.246094 489.832031 356.3125 C 493.316406 360.367188 496.804688 364.421875 500.367188 368.792969 C 500.917969 369.363281 501.390625 369.613281 501.871094 369.867188 C 501.871094 369.867188 501.859375 369.894531 501.753906 370.078125 C 502.023438 370.691406 502.40625 371.117188 502.785156 371.542969 C 502.785156 371.542969 502.757812 371.542969 502.660156 371.6875 C 503.394531 373.097656 504.222656 374.363281 505.054688 375.628906 C 505.371094 376.917969 505.691406 378.207031 505.996094 379.859375 C 507.230469 385.332031 508.480469 390.445312 509.703125 395.769531 C 509.664062 398.761719 509.652344 401.535156 509.542969 404.46875 C 508.574219 408.792969 507.941406 413.03125 506.734375 417.105469 C 505.773438 420.34375 504.113281 423.375 502.761719 426.5 C 501.246094 428.9375 499.734375 431.378906 498.210938 433.808594 C 497.851562 434.390625 497.445312 434.941406 496.789062 435.59375 C 494.71875 437.554688 492.921875 439.429688 491.128906 441.304688 C 491.128906 441.304688 491.128906 441.277344 490.976562 441.242188 C 490.175781 441.835938 489.527344 442.46875 488.878906 443.101562 C 487.226562 444.199219 485.578125 445.296875 483.613281 446.460938 C 480.9375 447.839844 478.582031 449.144531 476.050781 450.46875 C 473.625 451.246094 471.367188 451.980469 469.132812 452.777344 C 468.570312 452.976562 468.085938 453.375 467.5625 453.679688 C 465.972656 454 464.382812 454.316406 462.503906 454.5 C 456.824219 454.472656 451.441406 454.578125 446.058594 454.683594 M 423.601562 355.058594 C 422.945312 355.070312 422.117188 354.820312 421.660156 355.128906 C 414.636719 359.859375 409.160156 365.90625 405.390625 373.546875 C 403.066406 378.253906 402.160156 383.039062 402.667969 388.273438 C 402.566406 388.472656 402.402344 388.667969 402.367188 388.878906 C 400.808594 398.164062 401.285156 407.339844 404.152344 416.316406 C 405.269531 419.808594 406.785156 423.171875 408.105469 426.890625 C 408.511719 427.703125 408.824219 428.582031 409.339844 429.316406 C 412.769531 434.242188 417.03125 438.34375 421.886719 441.886719 C 427.308594 445.839844 433.394531 448.347656 439.8125 450.074219 C 449.144531 452.585938 458.527344 452.550781 467.808594 449.835938 C 474.921875 447.757812 481.449219 444.640625 487.210938 439.75 C 495.359375 432.820312 501.035156 424.441406 504.078125 414.292969 C 506.441406 406.402344 506.582031 398.320312 505.429688 390.238281 C 504.671875 384.894531 503.226562 379.730469 500.882812 374.769531 C 498.445312 369.613281 494.941406 365.289062 491.105469 361.222656 C 489.101562 359.097656 486.777344 356.878906 484.140625 355.835938 C 480.734375 354.484375 476.894531 354.105469 473.199219 353.636719 C 471.679688 353.441406 470.300781 353.421875 468.980469 351.933594 C 465.34375 351.410156 461.71875 350.632812 458.0625 350.414062 C 449.863281 349.921875 441.855469 351.34375 433.949219 353.390625 C 430.699219 354.230469 427.441406 355.023438 424.09375 355.632812 C 424 355.507812 423.878906 355.417969 423.601562 355.058594 Z M 423.601562 355.058594 " fill-opacity="1" fill-rule="nonzero"/><path fill="#535151" d="M 320.507812 264.386719 C 320.359375 265.496094 320.074219 266.605469 320.074219 267.71875 C 320.046875 334.980469 320.046875 402.242188 319.941406 469.71875 C 319.835938 469.933594 319.65625 469.933594 319.65625 469.933594 C 319.636719 456.464844 319.601562 442.996094 319.597656 429.527344 C 319.582031 375.257812 319.578125 320.988281 319.597656 266.71875 C 319.597656 265.804688 319.945312 264.894531 320.320312 264.074219 C 320.511719 264.167969 320.507812 264.386719 320.507812 264.386719 Z M 320.507812 264.386719 " fill-opacity="1" fill-rule="nonzero"/><path fill="#818081" d="M 320.15625 545.375 C 353.691406 545.21875 387.3125 545.226562 421.160156 545.367188 C 421.386719 545.503906 421.425781 545.71875 421.425781 545.71875 C 420.707031 545.855469 419.988281 546.117188 419.269531 546.117188 C 387.035156 546.136719 354.804688 546.140625 322.574219 546.109375 C 321.796875 546.109375 321.019531 545.738281 320.15625 545.375 Z M 320.15625 545.375 " fill-opacity="1" fill-rule="nonzero"/><path fill="#5d5c5a" d="M 320.726562 264.390625 C 320.507812 264.386719 320.511719 264.167969 320.515625 264.0625 C 334.824219 263.941406 349.128906 263.917969 363.433594 263.914062 C 379.519531 263.910156 395.609375 263.921875 411.914062 264.070312 C 412.144531 264.355469 412.160156 264.496094 412.1875 264.636719 C 411.339844 264.695312 410.492188 264.804688 409.648438 264.804688 C 383.78125 264.8125 357.917969 264.824219 332.050781 264.785156 C 328.351562 264.78125 324.648438 264.53125 320.726562 264.390625 Z M 320.726562 264.390625 " fill-opacity="1" fill-rule="nonzero"/><path fill="#7b7979" d="M 484.425781 457.996094 C 478.488281 461.605469 471.808594 463.761719 464.84375 464.824219 C 460.292969 465.519531 455.617188 465.902344 451.023438 465.722656 C 441.390625 465.347656 432.042969 463.449219 423.421875 458.878906 C 422.8125 458.554688 422.269531 458.113281 421.570312 457.648438 C 422.167969 457.734375 422.972656 457.746094 423.601562 458.082031 C 430.613281 461.800781 438.113281 463.621094 445.996094 464.445312 C 454.140625 465.296875 462.15625 464.882812 470.042969 462.914062 C 473.582031 462.03125 476.933594 460.414062 480.386719 459.167969 C 481.648438 458.714844 482.957031 458.386719 484.425781 457.996094 Z M 484.425781 457.996094 " fill-opacity="1" fill-rule="nonzero"/><path fill="#747272" d="M 506.433594 280.835938 C 499.027344 278.207031 491.699219 275.152344 484.179688 272.679688 C 474.066406 269.359375 463.519531 267.929688 452.777344 266.433594 C 452.5625 266.144531 452.558594 265.996094 452.558594 265.847656 C 457.195312 266.503906 461.886719 266.898438 466.453125 267.875 C 474.550781 269.609375 482.675781 271.351562 490.582031 273.761719 C 496.0625 275.433594 501.75 277.007812 506.433594 280.835938 Z M 506.433594 280.835938 " fill-opacity="1" fill-rule="nonzero"/><path fill="#7c7878" d="M 448.355469 543.945312 C 451.613281 543.46875 454.898438 543.125 458.121094 542.484375 C 466.707031 540.777344 475.304688 539.089844 483.820312 537.085938 C 488.125 536.074219 492.269531 534.402344 496.597656 533.113281 C 494.265625 534.285156 491.917969 535.691406 489.367188 536.394531 C 481.539062 538.558594 473.695312 540.742188 465.738281 542.351562 C 460.195312 543.46875 454.457031 543.65625 448.585938 544.203125 C 448.367188 544.148438 448.355469 543.945312 448.355469 543.945312 Z M 448.355469 543.945312 " fill-opacity="1" fill-rule="nonzero"/><path fill="#6a686a" d="M 428.089844 338.300781 C 428.445312 337.855469 428.910156 337.175781 429.535156 336.957031 C 435.132812 335.011719 440.820312 333.605469 446.789062 333.109375 C 455.71875 332.367188 464.4375 333.089844 473.019531 335.582031 C 473.796875 335.804688 474.507812 336.253906 475.292969 336.761719 C 472.550781 336.242188 469.777344 335.515625 466.980469 334.898438 C 465.425781 334.554688 463.84375 334.316406 462.257812 334.160156 C 453.675781 333.308594 445.128906 333.527344 436.71875 335.5625 C 433.851562 336.253906 431.085938 337.367188 428.089844 338.300781 Z M 428.089844 338.300781 " fill-opacity="1" fill-rule="nonzero"/><path fill="#797673" d="M 502.933594 426.5 C 504.113281 423.375 505.773438 420.34375 506.734375 417.105469 C 507.941406 413.03125 508.574219 408.792969 509.703125 404.472656 C 510.167969 404.320312 510.382812 404.316406 510.59375 404.316406 C 509.855469 408.050781 509.359375 411.851562 508.3125 415.496094 C 507.386719 418.726562 505.898438 421.800781 504.5625 424.90625 C 504.292969 425.527344 503.601562 425.976562 502.933594 426.5 Z M 502.933594 426.5 " fill-opacity="1" fill-rule="nonzero"/><path fill="#797673" d="M 412.394531 264.675781 C 412.160156 264.496094 412.144531 264.355469 412.128906 264.109375 C 418.414062 264.011719 424.699219 264.023438 431.09375 264.207031 C 430.535156 264.515625 429.875 264.769531 429.210938 264.769531 C 423.671875 264.777344 418.140625 264.742188 412.394531 264.675781 Z M 412.394531 264.675781 " fill-opacity="1" fill-rule="nonzero"/><path fill="#5d5c5f" d="M 568.246094 459.242188 C 569.558594 454.734375 570.890625 450.230469 572.175781 445.710938 C 572.6875 443.898438 573.105469 442.0625 573.675781 440.125 C 573.367188 442.640625 573.171875 445.328125 572.476562 447.878906 C 571.460938 451.636719 570.082031 455.296875 568.667969 459.140625 C 568.402344 459.269531 568.324219 459.257812 568.246094 459.242188 Z M 568.246094 459.242188 " fill-opacity="1" fill-rule="nonzero"/><path fill="#535151" d="M 319.644531 511.3125 C 319.789062 511.914062 320.023438 512.722656 320.023438 513.535156 C 320.050781 523.957031 320.042969 534.382812 320.042969 545.023438 C 319.882812 544.605469 319.601562 543.964844 319.601562 543.328125 C 319.589844 532.726562 319.613281 522.121094 319.644531 511.3125 Z M 319.644531 511.3125 " fill-opacity="1" fill-rule="nonzero"/><path fill="#747272" d="M 446.0625 454.882812 C 451.441406 454.578125 456.824219 454.472656 462.324219 454.527344 C 457.988281 456.472656 453.339844 455.3125 448.785156 455.589844 C 447.894531 455.644531 446.972656 455.261719 446.0625 454.882812 Z M 446.0625 454.882812 " fill-opacity="1" fill-rule="nonzero"/><path fill="#747272" d="M 568.136719 459.371094 C 568.324219 459.257812 568.402344 459.269531 568.597656 459.296875 C 567.675781 462.1875 566.714844 465.089844 565.574219 467.925781 C 564.6875 470.132812 563.574219 472.25 562.417969 474.488281 C 563.574219 471.097656 564.867188 467.621094 566.179688 464.152344 C 566.769531 462.589844 567.410156 461.046875 568.136719 459.371094 Z M 568.136719 459.371094 " fill-opacity="1" fill-rule="nonzero"/><path fill="#807b76" d="M 509.726562 395.554688 C 508.480469 390.445312 507.230469 385.332031 506 380.039062 C 506.351562 380.082031 506.886719 380.238281 506.988281 380.539062 C 507.949219 383.417969 508.941406 386.296875 509.710938 389.230469 C 510.21875 391.167969 510.378906 393.195312 510.511719 395.363281 C 510.128906 395.546875 509.925781 395.554688 509.726562 395.554688 Z M 509.726562 395.554688 " fill-opacity="1" fill-rule="nonzero"/><path fill="#6c6a69" d="M 570.0625 349.105469 C 569.753906 349.050781 569.316406 348.894531 569.191406 348.605469 C 567.007812 343.605469 564.863281 338.59375 562.800781 333.398438 C 562.972656 333.207031 563.050781 333.199219 563.132812 333.195312 C 565.449219 338.445312 567.769531 343.695312 570.0625 349.105469 Z M 570.0625 349.105469 " fill-opacity="1" fill-rule="nonzero"/><path fill="#625f5f" d="M 446.972656 344.277344 C 441.671875 345.507812 436.371094 346.738281 430.882812 347.890625 C 430.699219 347.816406 430.695312 347.621094 430.695312 347.621094 C 433.84375 346.648438 436.957031 345.550781 440.152344 344.75 C 442.246094 344.222656 444.453125 344.128906 446.792969 343.964844 C 446.976562 344.085938 446.972656 344.277344 446.972656 344.277344 Z M 446.972656 344.277344 " fill-opacity="1" fill-rule="nonzero"/><path fill="#706d69" d="M 400.316406 377.59375 C 400.105469 379.238281 399.765625 380.964844 399.359375 382.675781 C 398.582031 385.949219 397.773438 389.21875 396.738281 392.632812 C 396.398438 392.769531 396.296875 392.761719 396.199219 392.753906 C 396.457031 387.449219 398.316406 382.558594 400.316406 377.59375 Z M 400.316406 377.59375 " fill-opacity="1" fill-rule="nonzero"/><path fill="#797673" d="M 394.109375 367.699219 C 396.140625 363.335938 398.78125 359.238281 402.695312 355.886719 C 400.90625 358.582031 398.996094 361.359375 397.03125 364.097656 C 396.160156 365.316406 395.175781 366.453125 394.109375 367.699219 Z M 394.109375 367.699219 " fill-opacity="1" fill-rule="nonzero"/><path fill="#706d69" d="M 396.300781 404.558594 C 396.574219 404.851562 396.984375 405.324219 397.097656 405.859375 C 397.96875 409.945312 398.78125 414.039062 399.507812 418.363281 C 399.320312 418.613281 399.230469 418.632812 399.148438 418.65625 C 397.515625 414.164062 396.023438 409.644531 396.300781 404.558594 Z M 396.300781 404.558594 " fill-opacity="1" fill-rule="nonzero"/><path fill="#797674" d="M 475.683594 347.320312 C 473.539062 347.011719 471.3125 346.558594 469.085938 346.101562 C 466.464844 345.5625 463.84375 345.019531 461.070312 344.296875 C 460.917969 344.117188 460.925781 343.90625 460.925781 343.90625 C 466.003906 344.179688 470.894531 345.265625 475.683594 347.320312 Z M 475.683594 347.320312 " fill-opacity="1" fill-rule="nonzero"/><path fill="#706d6c" d="M 578.460938 411.433594 C 578.1875 411.023438 577.710938 410.40625 577.703125 409.785156 C 577.648438 403.46875 577.667969 397.152344 577.671875 390.835938 C 577.671875 390.535156 577.746094 390.234375 577.886719 389.800781 C 578.179688 390.855469 578.523438 392.042969 578.53125 393.226562 C 578.5625 399.226562 578.503906 405.226562 578.460938 411.433594 Z M 578.460938 411.433594 " fill-opacity="1" fill-rule="nonzero"/><path fill="#625f5f" d="M 319.636719 470.152344 C 319.65625 469.933594 319.835938 469.933594 319.925781 469.933594 C 320.023438 478.558594 320.03125 487.179688 320.039062 496.019531 C 319.886719 495.539062 319.605469 494.839844 319.601562 494.144531 C 319.578125 486.21875 319.601562 478.292969 319.636719 470.152344 Z M 319.636719 470.152344 " fill-opacity="1" fill-rule="nonzero"/><path fill="#84807e" d="M 405.441406 367.875 C 405.640625 367.878906 405.738281 367.96875 405.722656 367.996094 C 404.085938 371.1875 402.445312 374.375 400.628906 377.558594 C 400.78125 376.429688 400.925781 375.207031 401.472656 374.195312 C 402.632812 372.050781 404.007812 370.015625 405.441406 367.875 Z M 405.441406 367.875 " fill-opacity="1" fill-rule="nonzero"/><path fill="#797674" d="M 399.109375 418.828125 C 399.230469 418.632812 399.320312 418.613281 399.53125 418.539062 C 399.652344 418.492188 399.652344 418.53125 399.667969 418.664062 C 399.808594 418.894531 399.933594 419 400.058594 419.101562 C 401.769531 422.53125 403.480469 425.960938 405.160156 429.5625 C 403.109375 426.160156 401.09375 422.578125 399.109375 418.828125 Z M 399.109375 418.828125 " fill-opacity="1" fill-rule="nonzero"/><path fill="#818081" d="M 402.964844 355.835938 C 405.601562 353.109375 408.402344 350.371094 411.359375 347.625 C 408.71875 350.351562 405.921875 353.089844 402.964844 355.835938 Z M 402.964844 355.835938 " fill-opacity="1" fill-rule="nonzero"/><path fill="#75716e" d="M 488.324219 354.757812 C 487.820312 354.722656 487.21875 354.613281 486.726562 354.324219 C 483.882812 352.648438 481.066406 350.933594 478.207031 349.082031 C 482.195312 349.667969 485.304688 352.019531 488.324219 354.757812 Z M 488.324219 354.757812 " fill-opacity="1" fill-rule="nonzero"/><path fill="#797674" d="M 534.542969 511.039062 C 536.289062 509.226562 538.207031 507.386719 540.28125 505.519531 C 540.378906 505.929688 540.488281 506.582031 540.230469 506.789062 C 538.433594 508.25 536.5625 509.617188 534.542969 511.039062 Z M 534.542969 511.039062 " fill-opacity="1" fill-rule="nonzero"/><path fill="#75716e" d="M 396.042969 392.875 C 396.296875 392.761719 396.398438 392.769531 396.640625 392.785156 C 396.742188 396.113281 396.695312 399.433594 396.472656 402.84375 C 396.160156 399.625 396.023438 396.3125 396.042969 392.875 Z M 396.042969 392.875 " fill-opacity="1" fill-rule="nonzero"/><path fill="#6a686a" d="M 452.363281 265.804688 C 452.558594 265.996094 452.5625 266.144531 452.574219 266.398438 C 448.382812 266.050781 444.179688 265.59375 439.835938 265.054688 C 443.4375 265.066406 447.179688 265.144531 450.925781 265.273438 C 451.34375 265.285156 451.753906 265.589844 452.363281 265.804688 Z M 452.363281 265.804688 " fill-opacity="1" fill-rule="nonzero"/><path fill="#706d6c" d="M 460.726562 343.878906 C 460.925781 343.90625 460.917969 344.117188 460.910156 344.21875 C 456.398438 344.324219 451.898438 344.324219 447.183594 344.300781 C 446.972656 344.277344 446.976562 344.085938 446.976562 343.988281 C 450.082031 343.710938 453.179688 343.445312 456.285156 343.371094 C 457.695312 343.339844 459.113281 343.679688 460.726562 343.878906 Z M 460.726562 343.878906 " fill-opacity="1" fill-rule="nonzero"/><path fill="#818081" d="M 448.148438 543.898438 C 448.355469 543.945312 448.367188 544.148438 448.375 544.246094 C 445.253906 544.527344 442.125 544.710938 438.832031 544.796875 C 441.757812 544.414062 444.847656 544.128906 448.148438 543.898438 Z M 448.148438 543.898438 " fill-opacity="1" fill-rule="nonzero"/><path fill="#625f5f" d="M 424.117188 350.734375 C 423.949219 351.171875 423.683594 351.746094 423.234375 352.058594 C 421.378906 353.355469 419.464844 354.578125 417.410156 355.824219 C 417.390625 355.359375 417.390625 354.671875 417.707031 354.472656 C 419.746094 353.171875 421.851562 351.980469 424.117188 350.734375 Z M 424.117188 350.734375 " fill-opacity="1" fill-rule="nonzero"/><path fill="#6c6a69" d="M 412.078125 438.214844 C 414.375 439.9375 416.664062 441.828125 419.007812 443.859375 C 416.730469 442.128906 414.402344 440.257812 412.078125 438.214844 Z M 412.078125 438.214844 " fill-opacity="1" fill-rule="nonzero"/><path fill="#959388" d="M 509.703125 395.769531 C 509.925781 395.554688 510.128906 395.546875 510.476562 395.554688 C 510.636719 398.339844 510.648438 401.113281 510.628906 404.105469 C 510.382812 404.316406 510.167969 404.320312 509.796875 404.316406 C 509.652344 401.535156 509.664062 398.761719 509.703125 395.769531 Z M 509.703125 395.769531 " fill-opacity="1" fill-rule="nonzero"/><path fill="#75716e" d="M 476.222656 450.453125 C 478.582031 449.144531 480.9375 447.839844 483.433594 446.472656 C 482.804688 447.195312 482.136719 448.125 481.246094 448.726562 C 479.769531 449.71875 478.148438 450.5 476.414062 451.230469 C 476.238281 450.882812 476.230469 450.667969 476.222656 450.453125 Z M 476.222656 450.453125 " fill-opacity="1" fill-rule="nonzero"/><path fill="#6c6a69" d="M 412.53125 452.203125 C 411.9375 452.046875 411.234375 451.832031 410.734375 451.386719 C 408.441406 449.347656 405.675781 448.953125 402.625 448.878906 C 405.878906 448.273438 409.089844 448.574219 411.78125 450.980469 C 412.089844 451.261719 412.273438 451.683594 412.53125 452.203125 Z M 412.53125 452.203125 " fill-opacity="1" fill-rule="nonzero"/><path fill="#5d5c5a" d="M 574.71875 365.746094 C 574.433594 365.539062 574.011719 365.191406 573.898438 364.761719 C 573.09375 361.761719 572.351562 358.746094 571.578125 355.546875 C 572.5 358.25 573.433594 361.140625 574.351562 364.035156 C 574.511719 364.535156 574.605469 365.058594 574.71875 365.746094 Z M 574.71875 365.746094 " fill-opacity="1" fill-rule="nonzero"/><path fill="#747272" d="M 557.761719 482.828125 C 559.070312 480.125 560.519531 477.34375 562.136719 474.554688 C 560.835938 477.28125 559.371094 480.015625 557.761719 482.828125 Z M 557.761719 482.828125 " fill-opacity="1" fill-rule="nonzero"/><path fill="#676462" d="M 421.640625 545.691406 C 421.425781 545.71875 421.386719 545.503906 421.375 545.398438 C 424.527344 545.160156 427.699219 545.027344 430.992188 545.035156 C 429.027344 545.339844 426.933594 545.527344 424.839844 545.660156 C 423.847656 545.71875 422.851562 545.667969 421.640625 545.691406 Z M 421.640625 545.691406 " fill-opacity="1" fill-rule="nonzero"/><path fill="#7c7878" d="M 498.554688 350.921875 C 500.566406 352.664062 502.582031 354.566406 504.609375 356.628906 C 502.601562 354.890625 500.578125 352.988281 498.554688 350.921875 Z M 498.554688 350.921875 " fill-opacity="1" fill-rule="nonzero"/><path fill="#625f5f" d="M 476.050781 450.46875 C 476.230469 450.667969 476.238281 450.882812 476.257812 451.253906 C 473.933594 452.140625 471.601562 452.882812 469.261719 453.582031 C 468.835938 453.707031 468.359375 453.652344 467.734375 453.679688 C 468.085938 453.375 468.570312 452.976562 469.132812 452.777344 C 471.367188 451.980469 473.625 451.246094 476.050781 450.46875 Z M 476.050781 450.46875 " fill-opacity="1" fill-rule="nonzero"/><path fill="#6c6a69" d="M 491.292969 441.296875 C 492.921875 439.429688 494.71875 437.554688 496.683594 435.699219 C 495.058594 437.578125 493.261719 439.433594 491.292969 441.296875 Z M 491.292969 441.296875 " fill-opacity="1" fill-rule="nonzero"/><path fill="#706d6c" d="M 322.644531 494.71875 C 324.503906 493.085938 326.519531 491.460938 328.699219 489.808594 C 326.839844 491.429688 324.820312 493.078125 322.644531 494.71875 Z M 322.644531 494.71875 " fill-opacity="1" fill-rule="nonzero"/><path fill="#706d6c" d="M 331.832031 487.53125 C 333.738281 485.835938 335.804688 484.105469 338.042969 482.386719 C 336.144531 484.097656 334.070312 485.800781 331.832031 487.53125 Z M 331.832031 487.53125 " fill-opacity="1" fill-rule="nonzero"/><path fill="#797673" d="M 391.816406 439.8125 C 391.46875 435.695312 391.292969 431.476562 391.148438 427.050781 C 391.578125 427.875 392.304688 428.898438 392.316406 429.933594 C 392.351562 433.1875 392.117188 436.449219 391.816406 439.8125 Z M 391.816406 439.8125 " fill-opacity="1" fill-rule="nonzero"/><path fill="#706d6c" d="M 360.753906 477.355469 C 359.023438 478.90625 357.128906 480.441406 355.058594 481.949219 C 356.789062 480.394531 358.691406 478.867188 360.753906 477.355469 Z M 360.753906 477.355469 " fill-opacity="1" fill-rule="nonzero"/><path fill="#676462" d="M 430.527344 347.585938 C 430.695312 347.621094 430.699219 347.816406 430.703125 347.914062 C 428.730469 348.96875 426.757812 349.929688 424.59375 350.824219 C 426.390625 349.6875 428.375 348.621094 430.527344 347.585938 Z M 430.527344 347.585938 " fill-opacity="1" fill-rule="nonzero"/><path fill="#222323" d="M 410.554688 361.828125 C 409.699219 363.308594 408.6875 364.832031 407.515625 366.410156 C 408.367188 364.929688 409.382812 363.398438 410.554688 361.828125 Z M 410.554688 361.828125 " fill-opacity="1" fill-rule="nonzero"/><path fill="#84807e" d="M 505.066406 375.460938 C 504.222656 374.363281 503.394531 373.097656 502.660156 371.675781 C 503.535156 372.773438 504.308594 374.035156 505.066406 375.460938 Z M 505.066406 375.460938 " fill-opacity="1" fill-rule="nonzero"/><path fill="#797674" d="M 522.460938 520.285156 C 523.578125 519.347656 524.867188 518.398438 526.324219 517.480469 C 525.207031 518.429688 523.917969 519.347656 522.460938 520.285156 Z M 522.460938 520.285156 " fill-opacity="1" fill-rule="nonzero"/><path fill="#797673" d="M 563.113281 333.035156 C 563.050781 333.199219 562.972656 333.207031 562.773438 333.226562 C 562.042969 332.058594 561.433594 330.875 560.847656 329.507812 C 561.617188 330.507812 562.355469 331.691406 563.113281 333.035156 Z M 563.113281 333.035156 " fill-opacity="1" fill-rule="nonzero"/><path fill="#706d6c" d="M 508.640625 436.234375 C 508.082031 437.25 507.367188 438.328125 506.484375 439.421875 C 507.035156 438.390625 507.761719 437.339844 508.640625 436.234375 Z M 508.640625 436.234375 " fill-opacity="1" fill-rule="nonzero"/><path fill="#747272" d="M 340.792969 493.003906 C 340.136719 493.78125 339.3125 494.570312 338.320312 495.339844 C 338.976562 494.550781 339.800781 493.78125 340.792969 493.003906 Z M 340.792969 493.003906 " fill-opacity="1" fill-rule="nonzero"/><path fill="#6c6a69" d="M 489.03125 443.101562 C 489.527344 442.46875 490.175781 441.835938 490.992188 441.242188 C 490.503906 441.886719 489.847656 442.492188 489.03125 443.101562 Z M 489.03125 443.101562 " fill-opacity="1" fill-rule="nonzero"/><path fill="#7c7878" d="M 496.695312 349.074219 C 497.316406 349.425781 497.945312 349.9375 498.574219 350.617188 C 497.949219 350.265625 497.328125 349.753906 496.695312 349.074219 Z M 496.695312 349.074219 " fill-opacity="1" fill-rule="nonzero"/><path fill="#797674" d="M 529.433594 515.195312 C 529.929688 514.730469 530.601562 514.246094 531.441406 513.785156 C 530.945312 514.265625 530.277344 514.71875 529.433594 515.195312 Z M 529.433594 515.195312 " fill-opacity="1" fill-rule="nonzero"/><path fill="#797673" d="M 559.027344 326.109375 C 558.546875 325.605469 558.046875 324.9375 557.589844 324.105469 C 558.09375 324.609375 558.550781 325.277344 559.027344 326.109375 Z M 559.027344 326.109375 " fill-opacity="1" fill-rule="nonzero"/><path fill="#6c6a69" d="M 407.914062 433.585938 C 408.4375 433.949219 408.957031 434.46875 409.394531 435.144531 C 408.84375 434.78125 408.375 434.265625 407.914062 433.585938 Z M 407.914062 433.585938 " fill-opacity="1" fill-rule="nonzero"/><path fill="#706d6c" d="M 511.921875 431.089844 C 511.714844 431.660156 511.371094 432.3125 510.855469 432.960938 C 511.050781 432.359375 511.417969 431.761719 511.921875 431.089844 Z M 511.921875 431.089844 " fill-opacity="1" fill-rule="nonzero"/><path fill="#747272" d="M 346.800781 488.949219 C 346.464844 489.25 345.945312 489.542969 345.28125 489.804688 C 345.625 489.496094 346.125 489.21875 346.800781 488.949219 Z M 346.800781 488.949219 " fill-opacity="1" fill-rule="nonzero"/><path fill="#797673" d="M 556.238281 321.953125 C 555.917969 321.726562 555.589844 321.34375 555.277344 320.789062 C 555.605469 321.007812 555.914062 321.402344 556.238281 321.953125 Z M 556.238281 321.953125 " fill-opacity="1" fill-rule="nonzero"/><path fill="#797673" d="M 560.425781 328.421875 C 560.09375 328.21875 559.75 327.859375 559.449219 327.335938 C 559.800781 327.535156 560.105469 327.902344 560.425781 328.421875 Z M 560.425781 328.421875 " fill-opacity="1" fill-rule="nonzero"/><path fill="#84807e" d="M 502.773438 371.378906 C 502.40625 371.117188 502.023438 370.691406 501.734375 370.078125 C 502.140625 370.332031 502.453125 370.773438 502.773438 371.378906 Z M 502.773438 371.378906 " fill-opacity="1" fill-rule="nonzero"/><path fill="#84807e" d="M 501.855469 369.695312 C 501.390625 369.613281 500.917969 369.363281 500.433594 368.929688 C 500.902344 369.007812 501.371094 369.265625 501.855469 369.695312 Z M 501.855469 369.695312 " fill-opacity="1" fill-rule="nonzero"/><path fill="#797674" d="M 533.609375 511.964844 C 533.664062 511.671875 533.875 511.355469 534.246094 511.039062 C 534.195312 511.339844 533.984375 511.644531 533.609375 511.964844 Z M 533.609375 511.964844 " fill-opacity="1" fill-rule="nonzero"/><path fill="#797674" d="M 532.683594 512.890625 C 532.730469 512.589844 532.941406 512.269531 533.3125 511.957031 C 533.261719 512.265625 533.054688 512.570312 532.683594 512.890625 Z M 532.683594 512.890625 " fill-opacity="1" fill-rule="nonzero"/><path fill="#84807e" d="M 406.371094 366.914062 C 406.320312 367.28125 406.105469 367.644531 405.730469 367.929688 C 405.78125 367.535156 405.996094 367.226562 406.371094 366.914062 Z M 406.371094 366.914062 " fill-opacity="1" fill-rule="nonzero"/><path fill="#747272" d="M 341.726562 492.074219 C 341.683594 492.394531 341.476562 492.722656 341.109375 493.027344 C 341.152344 492.699219 341.355469 492.390625 341.726562 492.074219 Z M 341.726562 492.074219 " fill-opacity="1" fill-rule="nonzero"/><path fill="#84807e" d="M 546.308594 309.882812 C 546.179688 309.683594 546.054688 309.324219 545.96875 308.832031 C 546.113281 309.039062 546.210938 309.382812 546.308594 309.882812 Z M 546.308594 309.882812 " fill-opacity="1" fill-rule="nonzero"/><path fill="#747272" d="M 343.621094 490.742188 C 343.515625 491.023438 343.265625 491.332031 342.839844 491.636719 C 342.9375 491.34375 343.207031 491.058594 343.621094 490.742188 Z M 343.621094 490.742188 " fill-opacity="1" fill-rule="nonzero"/><path fill="#222323" d="M 411.949219 360.539062 C 411.855469 360.765625 411.644531 361.054688 411.285156 361.359375 C 411.367188 361.117188 411.597656 360.855469 411.949219 360.539062 Z M 411.949219 360.539062 " fill-opacity="1" fill-rule="nonzero"/><path fill="#706d6c" d="M 510.542969 433.347656 C 510.46875 433.621094 510.277344 433.984375 509.917969 434.347656 C 509.972656 434.046875 510.199219 433.742188 510.542969 433.347656 Z M 510.542969 433.347656 " fill-opacity="1" fill-rule="nonzero"/><path fill="#706d6c" d="M 354.347656 482.4375 C 354.25 482.648438 354.042969 482.933594 353.699219 483.265625 C 353.792969 483.046875 354.015625 482.78125 354.347656 482.4375 Z M 354.347656 482.4375 " fill-opacity="1" fill-rule="nonzero"/><path fill="#706d6c" d="M 505.460938 440.820312 C 505.453125 440.949219 505.355469 441.164062 505.175781 441.335938 C 505.183594 441.160156 505.277344 441.03125 505.460938 440.820312 Z M 505.460938 440.820312 " fill-opacity="1" fill-rule="nonzero"/><path fill="#706d6c" d="M 509.140625 435.179688 C 509.195312 435.386719 509.125 435.703125 508.917969 436.117188 C 508.859375 435.90625 508.941406 435.597656 509.140625 435.179688 Z M 509.140625 435.179688 " fill-opacity="1" fill-rule="nonzero"/><path fill="#6a686a" d="M 426.691406 338.582031 C 426.691406 338.464844 426.773438 338.328125 426.917969 338.234375 C 426.925781 338.382812 426.859375 338.476562 426.691406 338.582031 Z M 426.691406 338.582031 " fill-opacity="1" fill-rule="nonzero"/><path fill="#7c7878" d="M 504.621094 356.890625 C 504.761719 356.976562 504.925781 357.214844 505.089844 357.601562 C 504.941406 357.519531 504.792969 357.277344 504.621094 356.890625 Z M 504.621094 356.890625 " fill-opacity="1" fill-rule="nonzero"/><path fill="#797673" d="M 557.160156 323.363281 C 556.996094 323.289062 556.8125 323.066406 556.667969 322.699219 C 556.851562 322.773438 556.992188 322.996094 557.160156 323.363281 Z M 557.160156 323.363281 " fill-opacity="1" fill-rule="nonzero"/><path fill="#797673" d="M 559.484375 327.058594 C 559.335938 326.980469 559.164062 326.761719 559.007812 326.390625 C 559.164062 326.464844 559.3125 326.691406 559.484375 327.058594 Z M 559.484375 327.058594 " fill-opacity="1" fill-rule="nonzero"/><path fill="#84807e" d="M 537.59375 300.261719 C 537.398438 300.320312 537.144531 300.246094 536.792969 300.066406 C 536.980469 300.015625 537.253906 300.074219 537.59375 300.261719 Z M 537.59375 300.261719 " fill-opacity="1" fill-rule="nonzero"/><path fill="#797674" d="M 532.171875 513.332031 C 532.128906 513.21875 532.199219 513.066406 532.410156 512.898438 C 532.457031 513.019531 532.375 513.15625 532.171875 513.332031 Z M 532.171875 513.332031 " fill-opacity="1" fill-rule="nonzero"/><path fill="#747272" d="M 345.027344 489.792969 C 345.074219 489.910156 345.003906 490.0625 344.796875 490.230469 C 344.746094 490.105469 344.824219 489.964844 345.027344 489.792969 Z M 345.027344 489.792969 " fill-opacity="1" fill-rule="nonzero"/><path fill="#747272" d="M 344.5625 490.265625 C 344.578125 490.363281 344.464844 490.503906 344.210938 490.683594 C 344.1875 490.578125 344.308594 490.441406 344.5625 490.265625 Z M 344.5625 490.265625 " fill-opacity="1" fill-rule="nonzero"/><path fill="#5d5c5a" d="M 571.554688 355.28125 C 571.433594 355.324219 571.367188 355.230469 571.414062 355.050781 C 571.460938 355.007812 571.519531 355.191406 571.554688 355.28125 Z M 571.554688 355.28125 " fill-opacity="1" fill-rule="nonzero"/><path fill="#747272" d="M 342.242188 491.648438 C 342.292969 491.78125 342.214844 491.933594 342.007812 492.082031 C 341.957031 491.945312 342.035156 491.804688 342.242188 491.648438 Z M 342.242188 491.648438 " fill-opacity="1" fill-rule="nonzero"/><path fill="#75716e" d="M 488.800781 355.261719 C 488.667969 355.3125 488.503906 355.246094 488.339844 355.03125 C 488.480469 354.96875 488.621094 355.054688 488.800781 355.261719 Z M 488.800781 355.261719 " fill-opacity="1" fill-rule="nonzero"/><path fill="#747272" d="M 338.058594 495.34375 C 338.082031 495.441406 337.984375 495.582031 337.75 495.757812 C 337.722656 495.660156 337.828125 495.519531 338.058594 495.34375 Z M 338.058594 495.34375 " fill-opacity="1" fill-rule="nonzero"/><path fill="#797674" d="M 540.472656 505.460938 C 540.488281 505.4375 540.5625 505.355469 540.683594 505.210938 C 540.714844 505.273438 540.644531 505.355469 540.472656 505.460938 Z M 540.472656 505.460938 " fill-opacity="1" fill-rule="nonzero"/><path fill="#84807e" d="M 540.417969 303.046875 C 540.285156 303.105469 540.121094 303.039062 539.960938 302.828125 C 540.105469 302.765625 540.246094 302.84375 540.417969 303.046875 Z M 540.417969 303.046875 " fill-opacity="1" fill-rule="nonzero"/><path fill="#84807e" d="M 539.953125 302.582031 C 539.820312 302.640625 539.65625 302.574219 539.496094 302.367188 C 539.640625 302.304688 539.78125 302.382812 539.953125 302.582031 Z M 539.953125 302.582031 " fill-opacity="1" fill-rule="nonzero"/><path fill="#7c7878" d="M 496.230469 348.546875 C 496.320312 348.519531 496.476562 348.597656 496.675781 348.804688 C 496.578125 348.839844 496.4375 348.75 496.230469 348.546875 Z M 496.230469 348.546875 " fill-opacity="1" fill-rule="nonzero"/><path fill="#797673" d="M 560.859375 328.921875 C 560.726562 328.972656 560.574219 328.894531 560.417969 328.6875 C 560.554688 328.636719 560.695312 328.714844 560.859375 328.921875 Z M 560.859375 328.921875 " fill-opacity="1" fill-rule="nonzero"/><path fill="#75716e" d="M 489.265625 355.722656 C 489.136719 355.777344 488.96875 355.707031 488.804688 355.492188 C 488.945312 355.433594 489.085938 355.515625 489.265625 355.722656 Z M 489.265625 355.722656 " fill-opacity="1" fill-rule="nonzero"/><path fill="#797674" d="M 531.707031 513.792969 C 531.660156 513.679688 531.738281 513.527344 531.945312 513.359375 C 531.992188 513.480469 531.910156 513.617188 531.707031 513.792969 Z M 531.707031 513.792969 " fill-opacity="1" fill-rule="nonzero"/><path fill="#797674" d="M 528.917969 515.640625 C 528.875 515.527344 528.949219 515.378906 529.160156 515.207031 C 529.207031 515.324219 529.121094 515.460938 528.917969 515.640625 Z M 528.917969 515.640625 " fill-opacity="1" fill-rule="nonzero"/><path fill="#797674" d="M 528.464844 516.082031 C 528.417969 515.953125 528.492188 515.808594 528.691406 515.660156 C 528.742188 515.789062 528.664062 515.929688 528.464844 516.082031 Z M 528.464844 516.082031 " fill-opacity="1" fill-rule="nonzero"/><path fill="#797674" d="M 527.519531 516.554688 C 527.5 516.460938 527.605469 516.320312 527.84375 516.144531 C 527.867188 516.238281 527.753906 516.375 527.519531 516.554688 Z M 527.519531 516.554688 " fill-opacity="1" fill-rule="nonzero"/><path fill="#797674" d="M 527.054688 517.023438 C 527.011719 516.914062 527.089844 516.765625 527.296875 516.59375 C 527.34375 516.710938 527.257812 516.847656 527.054688 517.023438 Z M 527.054688 517.023438 " fill-opacity="1" fill-rule="nonzero"/><path fill="#797674" d="M 526.59375 517.488281 C 526.546875 517.371094 526.621094 517.21875 526.828125 517.050781 C 526.878906 517.175781 526.796875 517.316406 526.59375 517.488281 Z M 526.59375 517.488281 " fill-opacity="1" fill-rule="nonzero"/><path fill="#84807e" d="M 538.09375 300.730469 C 537.957031 300.792969 537.792969 300.730469 537.632812 300.523438 C 537.777344 300.453125 537.921875 300.53125 538.09375 300.730469 Z M 538.09375 300.730469 " fill-opacity="1" fill-rule="nonzero"/><path fill="#797674" d="M 521.941406 520.722656 C 521.898438 520.609375 521.976562 520.460938 522.1875 520.292969 C 522.230469 520.40625 522.144531 520.546875 521.941406 520.722656 Z M 521.941406 520.722656 " fill-opacity="1" fill-rule="nonzero"/><path fill="#797674" d="M 521.503906 521.140625 C 521.460938 521.03125 521.539062 520.898438 521.730469 520.75 C 521.773438 520.863281 521.695312 520.992188 521.503906 521.140625 Z M 521.503906 521.140625 " fill-opacity="1" fill-rule="nonzero"/><path fill="#84807e" d="M 539.488281 302.121094 C 539.355469 302.179688 539.191406 302.113281 539.03125 301.902344 C 539.175781 301.839844 539.316406 301.921875 539.488281 302.121094 Z M 539.488281 302.121094 " fill-opacity="1" fill-rule="nonzero"/><path fill="#6a686a" d="M 427.480469 338.355469 C 427.511719 338.285156 427.597656 338.289062 427.8125 338.289062 C 427.804688 338.332031 427.671875 338.382812 427.480469 338.355469 Z M 427.480469 338.355469 " fill-opacity="1" fill-rule="nonzero"/><path fill="#6a686a" d="M 475.351562 336.960938 C 475.300781 336.894531 475.53125 336.914062 475.644531 336.90625 C 475.640625 336.941406 475.523438 336.988281 475.351562 336.960938 Z M 475.351562 336.960938 " fill-opacity="1" fill-rule="nonzero"/><path fill="#84807e" d="M 539.023438 301.660156 C 538.890625 301.71875 538.726562 301.652344 538.566406 301.441406 C 538.710938 301.378906 538.851562 301.457031 539.023438 301.660156 Z M 539.023438 301.660156 " fill-opacity="1" fill-rule="nonzero"/><path fill="#84807e" d="M 538.5625 301.195312 C 538.417969 301.257812 538.246094 301.195312 538.089844 300.984375 C 538.25 300.917969 538.394531 300.992188 538.5625 301.195312 Z M 538.5625 301.195312 " fill-opacity="1" fill-rule="nonzero"/><path fill="#84807e" d="M 543.207031 305.8125 C 543.074219 305.875 542.910156 305.808594 542.75 305.601562 C 542.894531 305.535156 543.039062 305.613281 543.207031 305.8125 Z M 543.207031 305.8125 " fill-opacity="1" fill-rule="nonzero"/><path fill="#6c6a69" d="M 409.324219 435.394531 C 409.472656 435.332031 409.660156 435.386719 409.8125 435.605469 C 409.640625 435.679688 409.503906 435.597656 409.324219 435.394531 Z M 409.324219 435.394531 " fill-opacity="1" fill-rule="nonzero"/><path fill="#6c6a69" d="M 409.792969 435.855469 C 409.929688 435.796875 410.101562 435.855469 410.261719 436.070312 C 410.109375 436.144531 409.96875 436.0625 409.792969 435.855469 Z M 409.792969 435.855469 " fill-opacity="1" fill-rule="nonzero"/><path fill="#84807e" d="M 543.683594 306.273438 C 543.527344 306.339844 543.355469 306.277344 543.203125 306.070312 C 543.367188 305.996094 543.515625 306.070312 543.683594 306.273438 Z M 543.683594 306.273438 " fill-opacity="1" fill-rule="nonzero"/><path fill="#6c6a69" d="M 410.253906 436.316406 C 410.386719 436.261719 410.554688 436.328125 410.71875 436.539062 C 410.574219 436.605469 410.433594 436.523438 410.253906 436.316406 Z M 410.253906 436.316406 " fill-opacity="1" fill-rule="nonzero"/><path fill="#84807e" d="M 544.140625 306.738281 C 544.003906 306.800781 543.839844 306.730469 543.679688 306.523438 C 543.828125 306.460938 543.972656 306.535156 544.140625 306.738281 Z M 544.140625 306.738281 " fill-opacity="1" fill-rule="nonzero"/><path fill="#6c6a69" d="M 410.71875 436.777344 C 410.863281 436.722656 411.042969 436.785156 411.199219 437 C 411.039062 437.066406 410.898438 436.984375 410.71875 436.777344 Z M 410.71875 436.777344 " fill-opacity="1" fill-rule="nonzero"/><path fill="#6c6a69" d="M 411.183594 437.242188 C 411.332031 437.179688 411.515625 437.238281 411.667969 437.453125 C 411.5 437.527344 411.359375 437.445312 411.183594 437.242188 Z M 411.183594 437.242188 " fill-opacity="1" fill-rule="nonzero"/><path fill="#6c6a69" d="M 411.648438 437.707031 C 411.789062 437.644531 411.960938 437.703125 412.121094 437.917969 C 411.964844 437.992188 411.828125 437.90625 411.648438 437.707031 Z M 411.648438 437.707031 " fill-opacity="1" fill-rule="nonzero"/><path fill="#84807e" d="M 544.605469 307.203125 C 544.46875 307.261719 544.308594 307.195312 544.144531 306.984375 C 544.289062 306.921875 544.433594 307 544.605469 307.203125 Z M 544.605469 307.203125 " fill-opacity="1" fill-rule="nonzero"/><path fill="#706d6c" d="M 505.902344 439.792969 C 505.953125 439.890625 505.890625 440.074219 505.691406 440.3125 C 505.632812 440.203125 505.710938 440.042969 505.902344 439.792969 Z M 505.902344 439.792969 " fill-opacity="1" fill-rule="nonzero"/><path fill="#84807e" d="M 542.746094 305.355469 C 542.609375 305.414062 542.445312 305.347656 542.285156 305.136719 C 542.429688 305.074219 542.570312 305.152344 542.746094 305.355469 Z M 542.746094 305.355469 " fill-opacity="1" fill-rule="nonzero"/><path fill="#84807e" d="M 545.070312 307.664062 C 544.933594 307.722656 544.773438 307.65625 544.609375 307.449219 C 544.753906 307.382812 544.898438 307.460938 545.070312 307.664062 Z M 545.070312 307.664062 " fill-opacity="1" fill-rule="nonzero"/><path fill="#84807e" d="M 545.535156 308.125 C 545.398438 308.183594 545.238281 308.117188 545.074219 307.910156 C 545.21875 307.84375 545.363281 307.921875 545.535156 308.125 Z M 545.535156 308.125 " fill-opacity="1" fill-rule="nonzero"/><path fill="#84807e" d="M 546 308.585938 C 545.863281 308.644531 545.703125 308.578125 545.539062 308.371094 C 545.683594 308.308594 545.828125 308.382812 546 308.585938 Z M 546 308.585938 " fill-opacity="1" fill-rule="nonzero"/><path fill="#797673" d="M 556.691406 322.441406 C 556.558594 322.5 556.398438 322.433594 556.234375 322.226562 C 556.375 322.164062 556.519531 322.242188 556.691406 322.441406 Z M 556.691406 322.441406 " fill-opacity="1" fill-rule="nonzero"/><path fill="#84807e" d="M 542.269531 304.902344 C 542.152344 304.949219 542 304.875 541.828125 304.667969 C 541.953125 304.617188 542.089844 304.699219 542.269531 304.902344 Z M 542.269531 304.902344 " fill-opacity="1" fill-rule="nonzero"/><path fill="#84807e" d="M 541.796875 304.453125 C 541.695312 304.488281 541.550781 304.40625 541.375 304.199219 C 541.480469 304.160156 541.617188 304.246094 541.796875 304.453125 Z M 541.796875 304.453125 " fill-opacity="1" fill-rule="nonzero"/><path fill="#84807e" d="M 541.339844 303.984375 C 541.222656 304.03125 541.066406 303.957031 540.898438 303.746094 C 541.023438 303.695312 541.164062 303.78125 541.339844 303.984375 Z M 541.339844 303.984375 " fill-opacity="1" fill-rule="nonzero"/><path fill="#84807e" d="M 540.882812 303.511719 C 540.75 303.566406 540.585938 303.5 540.425781 303.289062 C 540.566406 303.230469 540.710938 303.308594 540.882812 303.511719 Z M 540.882812 303.511719 " fill-opacity="1" fill-rule="nonzero"/><path fill="#706d6c" d="M 338.253906 482.371094 C 338.234375 482.3125 338.304688 482.207031 338.449219 482.035156 C 338.53125 482.117188 338.476562 482.234375 338.253906 482.371094 Z M 338.253906 482.371094 " fill-opacity="1" fill-rule="nonzero"/><path fill="#706d6c" d="M 354.804688 481.953125 C 354.828125 482.039062 354.738281 482.171875 354.535156 482.351562 C 354.511719 482.269531 354.601562 482.136719 354.804688 481.953125 Z M 354.804688 481.953125 " fill-opacity="1" fill-rule="nonzero"/><path fill="#75716e" d="M 489.765625 356.199219 C 489.652344 356.246094 489.472656 356.175781 489.28125 355.960938 C 489.410156 355.902344 489.554688 355.992188 489.765625 356.199219 Z M 489.765625 356.199219 " fill-opacity="1" fill-rule="nonzero"/><path fill="#797673" d="M 557.613281 323.832031 C 557.492188 323.886719 557.339844 323.8125 557.171875 323.605469 C 557.296875 323.550781 557.441406 323.632812 557.613281 323.832031 Z M 557.613281 323.832031 " fill-opacity="1" fill-rule="nonzero"/><path fill="#bebfbf" d="M 469.285156 352.144531 C 470.300781 353.421875 471.679688 353.441406 473.199219 353.636719 C 476.894531 354.105469 480.734375 354.484375 484.140625 355.835938 C 486.777344 356.878906 489.101562 359.097656 491.105469 361.222656 C 494.941406 365.289062 498.445312 369.613281 500.882812 374.769531 C 503.226562 379.730469 504.671875 384.894531 505.429688 390.238281 C 506.582031 398.320312 506.441406 406.402344 504.078125 414.292969 C 501.035156 424.441406 495.359375 432.820312 487.210938 439.75 C 481.449219 444.640625 474.921875 447.757812 467.808594 449.835938 C 458.527344 452.550781 449.144531 452.585938 439.8125 450.074219 C 433.394531 448.347656 427.308594 445.839844 421.886719 441.886719 C 417.03125 438.34375 412.769531 434.242188 409.339844 429.316406 C 408.824219 428.582031 408.511719 427.703125 408.25 426.683594 C 408.222656 423.414062 408.046875 420.347656 408.015625 417.171875 C 409.503906 414.207031 409.074219 411.671875 406.683594 409.28125 C 409.625 409.425781 409.398438 407.464844 409.546875 405.652344 C 410.070312 405.175781 410.566406 404.734375 410.75 404.191406 C 414.421875 393.171875 420 383.265625 428.375 375.109375 C 431.878906 371.695312 435.703125 368.566406 439.644531 365.660156 C 442.964844 363.210938 446.554688 361.058594 450.226562 359.160156 C 455.785156 356.289062 461.746094 354.472656 467.949219 353.445312 C 468.453125 353.363281 468.839844 352.59375 469.285156 352.144531 M 470.085938 397.34375 C 468.578125 391.839844 465.453125 387.695312 459.855469 385.84375 C 451.921875 383.21875 444.675781 385.65625 440.328125 392.078125 C 436.40625 397.875 436.574219 404.277344 440.394531 410.253906 C 444.316406 416.386719 450.121094 418.722656 457.242188 417.425781 C 466.847656 415.675781 472.144531 406.738281 470.085938 397.34375 Z M 470.085938 397.34375 " fill-opacity="1" fill-rule="nonzero"/><path fill="#fcfcfc" d="M 469.132812 352.039062 C 468.839844 352.59375 468.453125 353.363281 467.949219 353.445312 C 461.746094 354.472656 455.785156 356.289062 450.226562 359.160156 C 446.554688 361.058594 442.964844 363.210938 439.644531 365.660156 C 435.703125 368.566406 431.878906 371.695312 428.375 375.109375 C 420 383.265625 414.421875 393.171875 410.75 404.191406 C 410.566406 404.734375 410.070312 405.175781 409.535156 405.476562 C 408.582031 403.117188 407.816406 400.949219 407.011719 398.605469 C 405.664062 395.015625 404.351562 391.597656 403.042969 388.175781 C 402.160156 383.039062 403.066406 378.253906 405.390625 373.546875 C 409.160156 365.90625 414.636719 359.859375 421.660156 355.128906 C 422.117188 354.820312 422.945312 355.070312 423.648438 355.359375 C 423.859375 355.71875 424.023438 355.777344 424.1875 355.839844 C 427.441406 355.023438 430.699219 354.230469 433.949219 353.390625 C 441.855469 351.34375 449.863281 349.921875 458.0625 350.414062 C 461.71875 350.632812 465.34375 351.410156 469.132812 352.039062 Z M 469.132812 352.039062 " fill-opacity="1" fill-rule="nonzero"/><path fill="#807b76" d="M 402.855469 388.226562 C 404.351562 391.597656 405.664062 395.015625 406.855469 398.726562 C 406.507812 404.132812 406.1875 409.246094 406.132812 414.359375 C 406.121094 415.371094 405.820312 417.199219 407.871094 417.28125 C 408.046875 420.347656 408.222656 423.414062 408.257812 426.535156 C 406.785156 423.171875 405.269531 419.808594 404.152344 416.316406 C 401.285156 407.339844 400.808594 398.164062 402.367188 388.878906 C 402.402344 388.667969 402.566406 388.472656 402.855469 388.226562 Z M 402.855469 388.226562 " fill-opacity="1" fill-rule="nonzero"/><path fill="#222323" d="M 424.140625 355.738281 C 424.023438 355.777344 423.859375 355.71875 423.710938 355.515625 C 423.878906 355.417969 424 355.507812 424.140625 355.738281 Z M 424.140625 355.738281 " fill-opacity="1" fill-rule="nonzero"/><path fill="#706d69" d="M 400.027344 418.976562 C 399.933594 419 399.808594 418.894531 399.652344 418.679688 C 399.75 418.660156 399.875 418.757812 400.027344 418.976562 Z M 400.027344 418.976562 " fill-opacity="1" fill-rule="nonzero"/><path fill="#060505" d="M 470.09375 397.539062 C 472.144531 406.738281 466.847656 415.675781 457.242188 417.425781 C 450.121094 418.722656 444.316406 416.386719 440.394531 410.253906 C 436.574219 404.277344 436.40625 397.875 440.328125 392.078125 C 444.675781 385.65625 451.921875 383.21875 459.855469 385.84375 C 465.453125 387.695312 468.578125 391.839844 470.09375 397.539062 M 451.953125 397.566406 C 451.324219 396.328125 450.960938 394.8125 450.003906 393.921875 C 448.804688 392.800781 447.113281 392.203125 445.640625 391.359375 C 444.199219 390.535156 443.023438 391.050781 442.820312 392.484375 C 442.546875 394.390625 442.503906 396.421875 442.882812 398.300781 C 443.269531 400.238281 445.710938 401.609375 447.738281 401.464844 C 449.976562 401.304688 451.546875 400.292969 451.953125 397.566406 Z M 451.953125 397.566406 " fill-opacity="1" fill-rule="nonzero"/><path fill="#aca8a7" d="M 408.015625 417.171875 C 405.820312 417.199219 406.121094 415.371094 406.132812 414.359375 C 406.1875 409.246094 406.507812 404.132812 406.894531 398.902344 C 407.816406 400.949219 408.582031 403.117188 409.363281 405.460938 C 409.398438 407.464844 409.625 409.425781 406.683594 409.28125 C 409.074219 411.671875 409.503906 414.207031 408.015625 417.171875 M 407.226562 411.460938 C 407.226562 411.460938 407.25 411.503906 407.226562 411.460938 Z M 407.226562 411.460938 " fill-opacity="1" fill-rule="nonzero"/><path fill="#f0f0f0" d="M 451.933594 397.746094 C 451.546875 400.292969 449.976562 401.304688 447.738281 401.464844 C 445.710938 401.609375 443.269531 400.238281 442.882812 398.300781 C 442.503906 396.421875 442.546875 394.390625 442.820312 392.484375 C 443.023438 391.050781 444.199219 390.535156 445.640625 391.359375 C 447.113281 392.203125 448.804688 392.800781 450.003906 393.921875 C 450.960938 394.8125 451.324219 396.328125 451.933594 397.746094 Z M 451.933594 397.746094 " fill-opacity="1" fill-rule="nonzero"/><path fill="#bebfbf" d="M 407.238281 411.484375 C 407.25 411.503906 407.226562 411.460938 407.238281 411.484375 Z M 407.238281 411.484375 " fill-opacity="1" fill-rule="nonzero"/><g fill="#ef8354" fill-opacity="1"><g transform="translate(589.314054, 461.684586)"><g><path d="M 6.5 0 L 75.398438 0 L 75.398438 -26 L 39 -26 L 39 -36.398438 L 68.898438 -36.398438 L 68.898438 -58.5 L 39 -58.5 L 39 -67.597656 L 74.097656 -67.597656 L 74.097656 -93.597656 L 6.5 -93.597656 Z M 6.5 0 "/></g></g></g><g fill="#ef8354" fill-opacity="1"><g transform="translate(667.311726, 461.684586)"><g><path d="M 32.238281 0 L 71.238281 0 L 103.609375 -93.597656 L 68.640625 -93.597656 L 51.867188 -27.429688 L 51.609375 -27.429688 L 34.839844 -93.597656 L 0 -93.597656 Z M 32.238281 0 "/></g></g></g><g fill="#ffffff" fill-opacity="1"><g transform="translate(770.907798, 461.684586)"><g><path d="M 18.851562 -72.796875 C 28.597656 -72.796875 35.097656 -79.039062 35.097656 -88.398438 C 35.097656 -97.757812 28.597656 -103.996094 18.851562 -103.996094 C 9.101562 -103.996094 2.601562 -97.757812 2.601562 -88.398438 C 2.601562 -79.039062 9.101562 -72.796875 18.851562 -72.796875 Z M 3.898438 0 L 33.800781 0 L 33.800781 -67.597656 L 3.898438 -67.597656 Z M 3.898438 0 "/></g></g></g><g fill="#ffffff" fill-opacity="1"><g transform="translate(808.606672, 461.684586)"><g><path d="M 36.269531 1.949219 C 58.628906 1.949219 73.1875 -6.628906 73.1875 -21.710938 C 73.1875 -34.058594 65.519531 -40.558594 47.449219 -43.289062 L 38.480469 -44.589844 C 31.71875 -45.628906 28.859375 -46.929688 28.859375 -48.878906 C 28.859375 -51.347656 32.238281 -52.648438 36.269531 -52.648438 C 41.210938 -52.648438 44.847656 -50.570312 45.109375 -45.890625 L 69.417969 -48.230469 C 68.640625 -61.097656 55.117188 -69.546875 37.4375 -69.546875 C 17.550781 -69.546875 4.417969 -61.359375 4.417969 -45.628906 C 4.417969 -33.539062 11.179688 -27.691406 26.910156 -25.871094 L 36.269531 -24.828125 C 43.9375 -23.917969 47.1875 -22.359375 47.1875 -19.628906 C 47.1875 -17.160156 43.160156 -15.601562 38.609375 -15.601562 C 32.5 -15.601562 27.558594 -18.328125 27.039062 -23.398438 L 1.949219 -21.578125 C 2.730469 -5.71875 16.769531 1.949219 36.269531 1.949219 Z M 36.269531 1.949219 "/></g></g></g><g fill="#ffffff" fill-opacity="1"><g transform="translate(883.744421, 461.684586)"><g><path d="M 18.851562 -72.796875 C 28.597656 -72.796875 35.097656 -79.039062 35.097656 -88.398438 C 35.097656 -97.757812 28.597656 -103.996094 18.851562 -103.996094 C 9.101562 -103.996094 2.601562 -97.757812 2.601562 -88.398438 C 2.601562 -79.039062 9.101562 -72.796875 18.851562 -72.796875 Z M 3.898438 0 L 33.800781 0 L 33.800781 -67.597656 L 3.898438 -67.597656 Z M 3.898438 0 "/></g></g></g><g fill="#ffffff" fill-opacity="1"><g transform="translate(921.443294, 461.684586)"><g><path d="M 54.597656 1.300781 C 70.199219 1.300781 80.597656 -11.960938 80.597656 -33.800781 C 80.597656 -55.640625 70.199219 -68.898438 54.597656 -68.898438 C 44.980469 -68.898438 37.699219 -63.699219 33.929688 -52.910156 L 33.800781 -52.910156 L 33.800781 -97.5 L 3.898438 -97.5 L 3.898438 0 L 28.597656 0 L 33.667969 -14.300781 L 33.800781 -14.300781 C 37.4375 -3.769531 44.71875 1.300781 54.597656 1.300781 Z M 41.597656 -23.398438 C 36.269531 -23.398438 32.5 -27.820312 32.5 -33.800781 C 32.5 -39.777344 36.269531 -44.199219 41.597656 -44.199219 C 46.929688 -44.199219 50.699219 -39.777344 50.699219 -33.800781 C 50.699219 -27.820312 46.929688 -23.398438 41.597656 -23.398438 Z M 41.597656 -23.398438 "/></g></g></g><g fill="#ffffff" fill-opacity="1"><g transform="translate(1003.99084, 461.684586)"><g><path d="M 3.898438 0 L 33.800781 0 L 33.800781 -97.5 L 3.898438 -97.5 Z M 3.898438 0 "/></g></g></g><g fill="#ffffff" fill-opacity="1"><g transform="translate(1041.689713, 461.684586)"><g><path d="M 45.5 2.601562 C 59.277344 2.601562 72.019531 -2.078125 78.257812 -9.230469 L 64.347656 -23.398438 C 60.058594 -19.757812 53.167969 -17.550781 46.929688 -17.550781 C 39.128906 -17.550781 33.539062 -20.539062 32.757812 -26 L 75.660156 -26 C 76.699219 -28.859375 77.347656 -33.28125 77.347656 -37.308594 C 77.347656 -57.199219 62.789062 -70.199219 40.429688 -70.199219 C 17.03125 -70.199219 1.820312 -55.769531 1.949219 -33.800781 C 1.949219 -11.828125 19.5 2.601562 45.5 2.601562 Z M 32.371094 -40.300781 C 32.757812 -46.539062 36.007812 -50.699219 40.429688 -50.699219 C 44.71875 -50.699219 47.449219 -46.539062 47.449219 -40.300781 Z M 32.371094 -40.300781 "/></g></g></g></svg>